<svg width="481" height="411" viewBox="0 0 481 411" fill="none" xmlns="http://www.w3.org/2000/svg">
<rect width="481" height="411" fill="#ffffff"/>
<path fill-rule="evenodd" clip-rule="evenodd" d="M77.2582 268.667C63.3994 291.664 54.6476 317.654 51.1279 346.261C49.6416 358.335 50.683 394.508 52.5697 396.396C52.6683 396.495 76.3203 396.533 105.131 396.481L157.513 396.388L118.963 330.261C97.762 293.891 80.3186 264.134 80.2019 264.134C80.0841 264.134 78.7601 266.174 77.2582 268.667ZM233.845 297.84C187.039 302.218 158.036 351.775 177.09 394.815L177.868 396.573H240.315H302.763L303.54 394.815C324.846 346.689 286.218 292.942 233.845 297.84Z" fill="#3495B5"/>
<path fill-rule="evenodd" clip-rule="evenodd" d="M0 411V205.5V0H240.5H481V205.5V411H240.5H0ZM429.469 345.336C418.156 255.383 350.791 188.2 261.019 177.345C256.333 176.778 230.334 176.266 227.191 176.677C226.58 176.758 224.002 177.008 221.46 177.234C114.553 186.743 36.2939 287.298 52.0526 394.908L52.3244 396.757L112.768 396.77C146.012 396.777 170.054 396.694 166.195 396.585L159.18 396.388L158.125 393.292C150.056 369.598 154.002 340.474 168.156 319.255C205.334 263.522 288.429 268.727 317.803 328.629C327.752 348.919 329.509 374.792 322.25 394.092L321.316 396.573H374.847H428.379L428.994 391.486C430.255 381.062 430.424 377.311 430.249 363.691C430.128 354.318 429.888 348.664 429.469 345.336ZM308.884 375.375C313.926 336.624 285.498 301.434 246.231 297.823C202.763 293.825 166.103 331.995 171.746 375.375C172.576 381.749 175.456 392.079 177.436 395.781L177.859 396.573H240.315H302.771L303.195 395.781C305.174 392.079 308.054 381.749 308.884 375.375ZM291.5 56H193.5H192V56.0491C180.826 56.7834 172 65.659 172 76.5C172 87.341 180.826 96.2166 192 96.9509V97H193.5H291.5H292V96.9946C303.643 96.7412 313 87.6625 313 76.5C313 65.3375 303.643 56.2588 292 56.0054V56H291.5Z" fill="#ECECEC"/>
<path fill-rule="evenodd" clip-rule="evenodd" d="M229.964 176.678C229.049 176.754 226.22 176.996 223.678 177.214C167.476 182.026 116.064 211.992 83.7433 258.778L80.2428 263.843L81.1387 265.376C81.6317 266.22 99.0151 296.043 119.77 331.648C147.815 379.762 157.696 396.418 158.242 396.506C159.139 396.65 159.141 396.788 158.22 394.133C141.991 347.361 170.5 295.159 219.004 282.835C229.954 280.053 221.779 280.276 320.808 280.055L409.62 279.857L406.698 274.604C376.108 219.615 322.181 184.107 258.986 177.345C254.139 176.826 233.767 176.358 229.964 176.678Z" fill="#DA4C40"/>
<path fill-rule="evenodd" clip-rule="evenodd" d="M249.928 280.631C305.009 287.643 340.226 342.789 322.411 394.133C321.993 395.335 321.653 396.376 321.653 396.445C321.653 396.515 345.597 396.573 374.863 396.573H428.072L428.282 395.555C430.359 385.484 430.97 359.539 429.438 346.446C426.806 323.96 421.231 304.348 411.851 284.582L409.698 280.042L327.871 280.089C257.762 280.13 246.601 280.208 249.928 280.631Z" fill="#FBCB44"/>
<path fill-rule="evenodd" clip-rule="evenodd" d="M228.951 176.725C229.514 176.811 230.345 176.808 230.801 176.721C231.255 176.633 230.795 176.563 229.778 176.565C228.761 176.569 228.39 176.64 228.951 176.725ZM250.025 176.725C250.588 176.811 251.419 176.808 251.873 176.721C252.329 176.633 251.868 176.563 250.852 176.565C249.835 176.569 249.463 176.64 250.025 176.725ZM223.771 177.085C224.127 177.178 224.709 177.178 225.065 177.085C225.421 176.991 225.13 176.915 224.418 176.915C223.706 176.915 223.415 176.991 223.771 177.085ZM255.566 177.085C255.922 177.178 256.504 177.178 256.86 177.085C257.216 176.991 256.925 176.915 256.213 176.915C255.501 176.915 255.21 176.991 255.566 177.085ZM157.499 195.142C156.99 195.433 156.741 195.67 156.944 195.67C157.147 195.67 157.73 195.433 158.238 195.142C158.747 194.851 158.996 194.614 158.793 194.614C158.589 194.614 158.007 194.851 157.499 195.142ZM109.793 228.158L107.772 230.285L109.898 228.264C111.873 226.385 112.193 226.031 111.919 226.031C111.861 226.031 110.904 226.989 109.793 228.158ZM370.27 227.881C371.272 228.898 372.174 229.731 372.276 229.731C372.377 229.731 371.641 228.898 370.639 227.881C369.639 226.864 368.736 226.031 368.635 226.031C368.533 226.031 369.268 226.864 370.27 227.881ZM101.289 236.667L99.2688 238.795L101.395 236.772C103.369 234.894 103.689 234.54 103.415 234.54C103.357 234.54 102.401 235.498 101.289 236.667ZM379.143 236.76C380.145 237.777 381.047 238.609 381.149 238.609C381.25 238.609 380.514 237.777 379.513 236.76C378.512 235.742 377.609 234.909 377.507 234.909C377.406 234.909 378.142 235.742 379.143 236.76ZM97.3965 240.922L96.3106 242.124L97.5119 241.037C98.6327 240.024 98.884 239.719 98.5978 239.719C98.5352 239.719 97.9941 240.26 97.3965 240.922ZM236.895 280.309C237.556 280.392 238.637 280.392 239.299 280.309C239.959 280.228 239.419 280.16 238.097 280.16C236.775 280.16 236.235 280.228 236.895 280.309ZM242.081 280.314C242.951 280.392 244.282 280.391 245.038 280.312C245.796 280.231 245.084 280.167 243.458 280.169C241.831 280.171 241.212 280.236 242.081 280.314ZM181.881 302.885L180.606 304.273L181.992 302.998C183.283 301.812 183.548 301.498 183.267 301.498C183.204 301.498 182.58 302.123 181.881 302.885ZM176.146 308.62L175.06 309.822L176.262 308.735C177.382 307.722 177.633 307.418 177.348 307.418C177.285 307.418 176.743 307.958 176.146 308.62ZM430.064 354.4C430.064 355.112 430.141 355.404 430.234 355.047C430.327 354.691 430.327 354.109 430.234 353.753C430.141 353.397 430.064 353.688 430.064 354.4ZM153.902 361.799C153.902 362.714 153.974 363.089 154.063 362.631C154.151 362.173 154.151 361.423 154.063 360.966C153.974 360.509 153.902 360.883 153.902 361.799ZM50.0444 366.608C50.0444 368.54 50.107 369.331 50.1839 368.365C50.2597 367.398 50.2597 365.817 50.1839 364.85C50.107 363.884 50.0444 364.674 50.0444 366.608ZM153.902 371.417C153.902 372.333 153.974 372.707 154.063 372.249C154.151 371.791 154.151 371.042 154.063 370.585C153.974 370.126 153.902 370.502 153.902 371.417ZM52.2811 396.285C52.358 396.666 64.1774 396.776 112.764 396.851C145.977 396.903 173.067 396.859 172.963 396.755C172.858 396.65 145.726 396.567 112.667 396.571C71.8337 396.574 52.5023 396.454 52.3737 396.195C52.2703 395.986 52.2282 396.027 52.2811 396.285Z" fill="#D9B99D"/>
</svg>
