<?xml version="1.0" encoding="UTF-8" standalone="no"?>
<svg xmlns="http://www.w3.org/2000/svg" preserveAspectRatio="xMinYMax meet" xmlns:xlink= "http://www.w3.org/1999/xlink" class="Logo__SVG-sc-1e86at2-0 efhjNq" role="img" aria-label="Ciklum" viewBox="0 0 108 35"><g id="text"><path d="M53.5,20c-0.2,0-0.3,0.1-0.4,0.2c-0.9,0.9-1.7,1.2-2.9,1.2c-2.1,0-3.7-1.7-3.7-3.9s1.6-3.9,3.7-3.9
c1.1,0,1.9,0.4,2.8,1.1c0.1,0.1,0.3,0.2,0.4,0.2c0.3,0,0.6-0.3,0.6-0.6c0-0.1-0.1-0.3-0.2-0.5c-0.8-0.7-1.8-1.4-3.6-1.4
c-2.8,0-4.9,2.2-4.9,5.1v0.1c0,2.9,2.1,5.1,4.9,5.1c1.5,0,2.6-0.4,3.7-1.5c0.1-0.1,0.2-0.3,0.2-0.4C54.1,20.3,53.8,20,53.5,20z"></path><path d="M58.7,12.4c-0.3,0-0.6,0.3-0.6,0.6v8.7c0,0.3,0.3,0.6,0.6,0.6c0.3,0,0.6-0.3,0.6-0.6v-8.7
C59.3,12.7,59,12.4,58.7,12.4z"></path><path d="M68.1,16.9l3.4-3.4c0.2-0.2,0.2-0.3,0.2-0.4c0-0.3-0.3-0.6-0.6-0.6c-0.2,0-0.3,0.1-0.4,0.2l-5.5,5.6v-5.2
c0-0.3-0.3-0.6-0.6-0.6S64,12.7,64,13.1v8.7c0,0.3,0.3,0.6,0.6,0.6s0.6-0.3,0.6-0.6v-2l2.1-2.1l3.6,4.4c0.1,0.2,0.3,0.2,0.5,0.2
c0.3,0,0.6-0.3,0.6-0.6c0-0.2-0.1-0.3-0.2-0.4L68.1,16.9z"></path><path d="M82.1,21.2h-5v-8.2c0-0.3-0.3-0.6-0.6-0.6s-0.6,0.3-0.6,0.6v8.7c0,0.3,0.3,0.6,0.6,0.6h5.6
c0.3,0,0.6-0.3,0.6-0.6C82.7,21.4,82.4,21.2,82.1,21.2z"></path><path d="M93,12.4c-0.3,0-0.6,0.3-0.6,0.6v5.2c0,2-1,3.1-2.9,3.1c-1.8,0-2.9-1.2-2.9-3.2v-5.1c0-0.3-0.3-0.6-0.6-0.6
c-0.3,0-0.6,0.3-0.6,0.6v5.2c0,2.6,1.6,4.3,4.1,4.3s4.1-1.7,4.1-4.4v-5.1C93.6,12.7,93.3,12.4,93,12.4z"></path><path d="M106.5,12.5L106.5,12.5c-0.3,0-0.5,0.1-0.6,0.3l-3.4,5L99,12.7c-0.1-0.1-0.2-0.3-0.5-0.3h-0.1
c-0.3,0-0.6,0.3-0.6,0.6v8.7c0,0.3,0.3,0.6,0.6,0.6c0.3,0,0.6-0.3,0.6-0.6v-6.9l2.9,4.3c0.1,0.2,0.3,0.3,0.5,0.3
c0.2,0,0.4-0.1,0.5-0.3l2.9-4.3v7c0,0.3,0.3,0.6,0.6,0.6c0.3,0,0.6-0.3,0.6-0.6v-8.7C107.2,12.7,106.9,12.5,106.5,12.5z"></path></g><g id="sign"><circle fill="#F0F0F0" cx="17.5" cy="17.5" r="17.5"></circle><path fill="#00AAF0" d="M17.9,25.5c-4.3,0.3-8.1-3-8.4-7.4C9.2,14.3,11.6,11,15,9.9l-1-3.2c-4.9,1.5-8.3,6.3-7.9,11.7
c0.4,6.2,5.8,11,12,10.5c0.9-0.1,1.7-0.2,2.5-0.5l-1-3.2C19.1,25.3,18.5,25.4,17.9,25.5"></path><path fill="#50468C" d="M12.1,22.8c2.9,2.9,7.6,2.9,10.4,0L20.8,21c-1.9,1.9-5,1.9-6.9,0c-1.9-1.9-1.9-5.1,0-7l-1.7-1.8
C9.2,15.1,9.2,19.9,12.1,22.8"></path><path fill="#F06428" d="M25.6,25.9c-4.5,4.6-11.9,4.6-16.5,0c-2.3-2.3-3.4-5.3-3.4-8.4l0,0c0-3,1.1-6,3.4-8.4
c4.5-4.6,11.9-4.6,16.5,0L29,5.7C22.5-0.9,12.3-1,5.7,5.7C2.4,9,0.9,13.3,0.9,17.6l0,0c0,4.3,1.6,8.6,4.8,11.8
c6.4,6.5,16.9,6.5,23.3,0L25.6,25.9z"></path></g></svg>