<?xml version="1.0" encoding="utf-8"?>
<!-- Generator: Adobe Illustrator 18.1.0, SVG Export Plug-In . SVG Version: 6.00 Build 0)  -->
<!DOCTYPE svg PUBLIC "-//W3C//DTD SVG 1.1 Tiny//EN" "http://www.w3.org/Graphics/SVG/1.1/DTD/svg11-tiny.dtd">
<svg version="1.1" baseProfile="tiny" id="Layer_1" xmlns="http://www.w3.org/2000/svg" xmlns:xlink="http://www.w3.org/1999/xlink"
	 x="0px" y="0px" viewBox="0 0 267.7 50" xml:space="preserve">
<g>
	<path fill="#007385" d="M18.9,32.6c-0.7,0-1.1,0.3-1.5,0.5c-1.2,0.9-2.8,2.1-5.6,2.1c-2.8,0-6.6-0.9-6.6-8.8c0-5.9,2.2-8.7,6.6-8.7
		c3.1,0,4.3,1.4,5.1,2.2c0.3,0.4,0.9,0.9,1.9,0.9c1.3,0,2.4-1.1,2.4-2.4c0-0.7-0.3-1.1-0.5-1.5c-0.5-0.7-3.2-4-8.8-4
		C4.2,12.9,0,17.7,0,26.4C0,35.2,4.2,40,11.8,40c4.8,0,7.6-2.3,8.6-3.1c0.7-0.6,1-1.2,1-2C21.3,33.7,20.2,32.6,18.9,32.6z"/>
	<path fill="#007385" d="M31.6,34.9c-0.5,0-1.2,0-1.2-2.1V2.6c0-1.4-1.1-2.6-2.6-2.6c-1.4,0-2.6,1.2-2.6,2.6v30.2
		c0,4.5,2.3,7.1,6.4,7.1c1.4,0,2.5-1.1,2.5-2.5C34.1,36,33,34.9,31.6,34.9z"/>
	<path fill="#007385" d="M58.5,24.1c0-5.2-2.9-11.2-11-11.2c-7.5,0-11.8,4.9-11.8,13.6C35.8,37.7,42.4,40,48,40
		c5.4,0,8.3-2.7,8.9-3.2c0.3-0.3,0.8-0.8,0.8-1.8c0-1.3-1.1-2.4-2.4-2.4c-0.7,0-1.1,0.2-1.5,0.5c-1.4,1.1-3,2.1-5.8,2.1
		c-4.2,0-6.8-2.6-7.1-6.9h14.5C58.5,28.3,58.5,25.6,58.5,24.1z M53.4,23.6H41c0.5-3.8,2.8-5.9,6.5-5.9
		C51.2,17.7,53.2,19.6,53.4,23.6z"/>
	<path fill="#007385" d="M116,24.1c0-5.2-2.9-11.2-11-11.2c-7.5,0-11.8,4.9-11.8,13.6c0,11.2,6.7,13.6,12.3,13.6
		c5.4,0,8.3-2.7,8.9-3.2c0.3-0.3,0.8-0.8,0.8-1.8c0-1.3-1.1-2.4-2.4-2.4c-0.7,0-1.1,0.2-1.5,0.5c-1.4,1.1-3,2.1-5.8,2.1
		c-4.2,0-6.8-2.6-7.1-6.9H113C116,28.3,116,25.6,116,24.1z M105,17.7c3.7,0,5.6,1.9,5.9,5.9H98.6C99.1,19.8,101.4,17.7,105,17.7z"/>
	<path fill="#007385" d="M131.8,13c-2.6,0-4.9,0.9-6.5,2.4c-0.2-1.3-1.2-2.2-2.5-2.2c-1.4,0-2.6,1.1-2.6,2.6v21.5
		c0,1.4,1.1,2.6,2.6,2.6s2.6-1.1,2.6-2.6V25.4c0-4.7,2.4-7.4,6.5-7.4c1.4,0,2.5-1.1,2.5-2.5S133.2,13,131.8,13z"/>
	<path fill="#007385" d="M149.3,12.9c-2.6,0-4.8,1-6.3,2.2V2.6c0-1.4-1.1-2.6-2.6-2.6c-1.4,0-2.6,1.1-2.6,2.6v26.2
		c0,7,4.3,11.3,11.2,11.3c7.5,0,11.7-4.8,11.7-13.6C160.7,15.2,154.5,12.9,149.3,12.9z M155.6,26.4c0,7.9-3.8,8.8-6.6,8.8
		c-3.9,0-6.1-2.3-6.1-6.5v-7.1c0.4-0.8,2.2-4,6.1-4C153.5,17.7,155.6,20.6,155.6,26.4z"/>
	<path fill="#007385" d="M176.4,13c-2.6,0-4.9,0.9-6.5,2.4c-0.2-1.3-1.2-2.2-2.5-2.2c-1.4,0-2.6,1.1-2.6,2.6v21.5
		c0,1.4,1.1,2.6,2.6,2.6s2.6-1.1,2.6-2.6V25.4c0-4.7,2.4-7.4,6.5-7.4c1.4,0,2.5-1.1,2.5-2.5S177.8,13,176.4,13z"/>
	<path fill="#007385" d="M184.9,4.1c-1.9,0-2.9,1.1-2.9,3c0,1.7,1.1,2.9,2.9,2.9s2.9-1.1,2.9-2.9C187.8,5.2,186.8,4.1,184.9,4.1z"/>
	<path fill="#007385" d="M184.9,13.2c-1.4,0-2.6,1.1-2.6,2.6v21.5c0,1.4,1.1,2.6,2.6,2.6s2.6-1.1,2.6-2.6V15.8
		C187.5,14.3,186.3,13.2,184.9,13.2z"/>
	<path fill="#007385" d="M211.5,0c-1.4,0-2.6,1.1-2.6,2.6v12.5c-1.5-1.2-3.7-2.2-6.3-2.2c-5.2,0-11.5,2.4-11.5,13.6
		c0,8.8,4.2,13.6,11.7,13.6c6.9,0,11.2-4.3,11.2-11.3V2.6C214.1,1.1,213,0,211.5,0z M209,21.7v7.1c0,4.2-2.2,6.5-6.1,6.5
		c-2.8,0-6.6-0.9-6.6-8.8c0-5.9,2.2-8.7,6.6-8.7C206.8,17.7,208.6,20.9,209,21.7z"/>
	<path fill="#007385" d="M264.5,32.6c-0.7,0-1.1,0.2-1.5,0.5c-1.4,1.1-3,2.1-5.8,2.1c-4.2,0-6.8-2.6-7.1-6.9h14.5c3,0,3-2.8,3-4.3
		c0-5.2-2.9-11.2-11-11.2c-7.5,0-11.8,4.9-11.8,13.6c0,11.2,6.7,13.6,12.3,13.6c5.4,0,8.3-2.7,8.9-3.2c0.3-0.3,0.8-0.8,0.8-1.8
		C266.9,33.7,265.8,32.6,264.5,32.6z M262.6,23.6h-12.4c0.5-3.8,2.8-5.9,6.5-5.9C260.4,17.7,262.3,19.6,262.6,23.6z"/>
	<path fill="#007385" d="M229.7,13c-7.6,0-11.8,4.8-11.8,13.6c0,8.7,4.2,13.5,11.8,13.5c2.3,0,4.6-0.7,6.3-2V39c0,5-3.5,6.1-6.5,6.1
		c-3,0-4.5-1.1-5.6-2.2c-0.6-0.6-1.2-0.8-1.9-0.8c-1.4,0-2.5,1.1-2.5,2.5c0,0.5,0.2,1,0.5,1.5c2.1,2.6,5.5,4,9.5,4
		c7.3,0,11.7-4.1,11.7-11V24.3C241.1,17.3,236.7,13,229.7,13z M229.7,17.8c3.9,0,6.3,2.4,6.3,6.5v7.4c-0.4,0.7-2.4,3.6-6.3,3.6
		c-4.5,0-6.7-2.9-6.7-8.7C223,20.6,225.2,17.8,229.7,17.8z"/>
	<path fill="#E66425" d="M61.2,15.2c-1,1-1,2.6,0,3.6l18.7,18.7c1,1,2.6,1,3.6,0l0,0c1-1,1-2.6,0-3.6L64.8,15.2
		C63.8,14.2,62.2,14.2,61.2,15.2L61.2,15.2z"/>
	<path fill="#F5891F" d="M89.3,14.4H63c-1.4,0-2.5,1.1-2.5,2.5V17c0,0.8,0.4,1.5,0.9,1.9l4.9,4.9l0,0c-1-1-1-2.6,0-3.6l0,0
		c0.5-0.5,1.1-0.7,1.8-0.7l1.1,0l0,0l0,0h20.1c1.4,0,2.5-1.1,2.5-2.5V17C91.8,15.6,90.7,14.4,89.3,14.4z"/>
</g>
</svg>
