<?xml version="1.0" encoding="UTF-8" standalone="no"?>
<!-- Created with Inkscape (http://www.inkscape.org/) -->

<svg
   xmlns:dc="http://purl.org/dc/elements/1.1/"
   xmlns:cc="http://creativecommons.org/ns#"
   xmlns:rdf="http://www.w3.org/1999/02/22-rdf-syntax-ns#"
   xmlns:svg="http://www.w3.org/2000/svg"
   xmlns="http://www.w3.org/2000/svg"
   xmlns:sodipodi="http://sodipodi.sourceforge.net/DTD/sodipodi-0.dtd"
   xmlns:inkscape="http://www.inkscape.org/namespaces/inkscape"
   id="svg2"
   version="1.1"
   inkscape:version="0.91 r13725"
   xml:space="preserve"
   width="535.5929"
   height="196.15138"
   viewBox="0 0 535.5929 196.15138"
   sodipodi:docname="cutco.svg"><metadata
     id="metadata8"><rdf:RDF><cc:Work
         rdf:about=""><dc:format>image/svg+xml</dc:format><dc:type
           rdf:resource="http://purl.org/dc/dcmitype/StillImage" /><dc:title></dc:title></cc:Work></rdf:RDF></metadata><defs
     id="defs6"><clipPath
       clipPathUnits="userSpaceOnUse"
       id="clipPath16"><path
         d="M 0,600 800,600 800,0 0,0 0,600 Z"
         id="path18"
         inkscape:connector-curvature="0" /></clipPath></defs><sodipodi:namedview
     pagecolor="#ffffff"
     bordercolor="#666666"
     borderopacity="1"
     objecttolerance="10"
     gridtolerance="10"
     guidetolerance="10"
     inkscape:pageopacity="0"
     inkscape:pageshadow="2"
     inkscape:window-width="1600"
     inkscape:window-height="1136"
     id="namedview4"
     showgrid="false"
     fit-margin-top="0"
     fit-margin-left="0"
     fit-margin-right="0"
     fit-margin-bottom="0"
     inkscape:zoom="0.89001173"
     inkscape:cx="490.13115"
     inkscape:cy="56.293368"
     inkscape:window-x="1600"
     inkscape:window-y="27"
     inkscape:window-maximized="1"
     inkscape:current-layer="g10" /><g
     id="g10"
     inkscape:groupmode="layer"
     inkscape:label="cutco_cutlery"
     transform="matrix(1.25,0,0,-1.25,-208.22362,459.43238)"><g
       id="g4400"><g
         transform="translate(541.667,334)"
         id="g20"><path
           inkscape:connector-curvature="0"
           id="path22"
           style="fill:#000000;fill-opacity:1;fill-rule:nonzero;stroke:none"
           d="m 0,0 c -24.301,0 -44,-19.848 -44,-44.334 0,-24.484 19.699,-44.333 44,-44.333 24.301,0 44,19.849 44,44.333 C 44,-19.848 24.301,0 0,0 m 0,-10 c 18.748,0 34,-15.402 34,-34.334 0,-18.932 -15.252,-34.333 -34,-34.333 -18.748,0 -34,15.401 -34,34.333 C -34,-25.402 -18.748,-10 0,-10" /></g><g
         transform="translate(503.665,263.5176)"
         id="g24"><path
           inkscape:connector-curvature="0"
           id="path26"
           style="fill:#000000;fill-opacity:1;fill-rule:nonzero;stroke:none"
           d="m 0,0 c -5.935,-5.098 -13.614,-8.185 -21.998,-8.185 -18.748,0 -34,15.402 -34,34.333 0,18.932 15.252,34.334 34,34.334 8.228,0 15.782,-2.968 21.67,-7.898 l 0,12.144 c -6.399,3.657 -13.789,5.754 -21.67,5.754 -24.301,0 -44,-19.848 -44,-44.334 0,-24.484 19.699,-44.333 44,-44.333 8.017,0 15.525,2.171 21.998,5.945 L 0,0 Z" /></g><g
         transform="translate(333.8311,263.6631)"
         id="g28"><path
           inkscape:connector-curvature="0"
           id="path30"
           style="fill:#000000;fill-opacity:1;fill-rule:nonzero;stroke:none"
           d="m 0,0 c -5.957,-5.185 -13.701,-8.33 -22.164,-8.33 -18.748,0 -34,15.401 -34,34.333 0,18.932 15.252,34.334 34,34.334 8.227,0 15.78,-2.967 21.667,-7.895 l 0,12.142 c -6.398,3.656 -13.787,5.753 -21.667,5.753 -24.3,0 -44,-19.848 -44,-44.334 0,-24.484 19.7,-44.333 44,-44.333 8.085,0 15.654,2.207 22.164,6.04 L 0,0 Z" /></g><path
         inkscape:connector-curvature="0"
         id="path32"
         style="fill:#000000;fill-opacity:1;fill-rule:nonzero;stroke:none"
         d="m 446.5,323.75 -48.75,0 0,8.75 48.75,0 0,-8.75 z" /><path
         inkscape:connector-curvature="0"
         id="path34"
         style="fill:#000000;fill-opacity:1;fill-rule:nonzero;stroke:none"
         d="m 419,328.25 8.75,0 0,-80.25 -8.75,0 0,80.25 z" /><g
         transform="translate(394.75,332.25)"
         id="g36"><path
           inkscape:connector-curvature="0"
           id="path38"
           style="fill:#000000;fill-opacity:1;fill-rule:nonzero;stroke:none"
           d="m 0,0 -9,0 0,-60.25 c 0,-9.209 -8.691,-16.701 -19.375,-16.701 -10.684,0 -19.375,7.492 -19.375,16.701 l 0,59.5 -9,0 0,-59.5 c 0,-14.194 12.704,-25.701 28.375,-25.701 C -12.703,-85.951 0,-74.444 0,-60.25 L 0,0 Z" /></g></g><g
       id="g4412"><path
         d="m 585.6152,252.4316 0.327,0 c 0.968,0 1.674,0.189 2.117,0.565 0.444,0.379 0.665,0.85 0.665,1.415 0,0.587 -0.205,1.081 -0.616,1.481 -0.411,0.398 -0.936,0.598 -1.576,0.598 -0.276,0 -0.582,-0.058 -0.917,-0.174 l 0,-3.885 z m -2.585,4.539 4.211,0 c 1.055,0 1.858,-0.238 2.411,-0.713 0.553,-0.474 0.829,-1.051 0.829,-1.725 0,-0.551 -0.187,-1.036 -0.561,-1.454 -0.375,-0.416 -0.995,-0.738 -1.859,-0.963 l 2.279,-3.243 c 0.276,-0.384 0.523,-0.65 0.741,-0.795 0.138,-0.086 0.331,-0.14 0.578,-0.163 l 0,-0.36 -2.007,0 -3.208,4.408 -0.829,0 0,-3.362 c 0.044,-0.24 0.147,-0.413 0.312,-0.522 0.163,-0.109 0.489,-0.164 0.976,-0.164 l 0,-0.36 -4.004,0 0,0.36 c 0.363,0 0.619,0.048 0.769,0.142 0.149,0.095 0.257,0.235 0.322,0.424 0.028,0.095 0.043,0.407 0.043,0.936 l 0,5.692 c 0,0.536 -0.011,0.852 -0.032,0.947 -0.051,0.166 -0.144,0.295 -0.279,0.386 -0.134,0.091 -0.365,0.136 -0.692,0.136 l 0,0.393 z m 4.276,2.313 c -1.185,0 -2.341,-0.305 -3.469,-0.914 -1.127,-0.612 -2.007,-1.481 -2.64,-2.61 -0.633,-1.129 -0.949,-2.307 -0.949,-3.535 0,-1.22 0.31,-2.39 0.932,-3.508 0.622,-1.118 1.494,-1.989 2.614,-2.614 1.12,-0.624 2.291,-0.937 3.512,-0.937 1.222,0 2.395,0.313 3.519,0.937 1.124,0.625 1.996,1.496 2.618,2.614 0.622,1.118 0.933,2.288 0.933,3.508 0,1.228 -0.317,2.406 -0.949,3.535 -0.633,1.129 -1.513,1.998 -2.64,2.61 -1.128,0.609 -2.288,0.914 -3.481,0.914 m 0,0.676 c 1.302,0 2.572,-0.333 3.808,-0.998 1.236,-0.666 2.202,-1.618 2.897,-2.858 0.694,-1.24 1.042,-2.533 1.042,-3.879 0,-1.338 -0.342,-2.622 -1.026,-3.852 -0.683,-1.228 -1.641,-2.183 -2.869,-2.863 -1.23,-0.681 -2.514,-1.02 -3.852,-1.02 -1.338,0 -2.62,0.339 -3.845,1.02 -1.226,0.68 -2.181,1.635 -2.865,2.863 -0.683,1.23 -1.025,2.514 -1.025,3.852 0,1.346 0.348,2.639 1.042,3.879 0.694,1.24 1.66,2.192 2.897,2.858 1.236,0.665 2.501,0.998 3.796,0.998"
         style="fill:#000000;fill-opacity:1;fill-rule:nonzero;stroke:none"
         id="path42"
         inkscape:connector-curvature="0" /></g><g
       id="g4392"><g
         transform="translate(211.2852,367.5459)"
         id="g44"><path
           inkscape:connector-curvature="0"
           id="path46"
           style="fill:#005288;fill-opacity:1;fill-rule:nonzero;stroke:none"
           d="M 0,0 -4.318,-7.386 36.07,-76.449 -4.318,-146.441 0,-153.926 44.708,-76.449 0,0 Z" /></g><g
         transform="translate(197.8809,344.625)"
         id="g48"><path
           inkscape:connector-curvature="0"
           id="path50"
           style="fill:#005288;fill-opacity:1;fill-rule:nonzero;stroke:none"
           d="M 0,0 -31.302,-53.528 0,-107.776 31.304,-53.528 0,0 Z" /></g><g
         transform="translate(204.5498,356.0283)"
         id="g52"><path
           inkscape:connector-curvature="0"
           id="path54"
           style="fill:#005288;fill-opacity:1;fill-rule:nonzero;stroke:none"
           d="M 0,0 -4.252,-7.271 29.469,-64.932 -4.252,-123.366 0,-130.735 37.972,-64.932 0,0 Z" /></g></g><g
       id="g4415"><g
         transform="translate(271.7305,234.207)"
         id="g56"><path
           inkscape:connector-curvature="0"
           id="path58"
           style="fill:#000000;fill-opacity:1;fill-rule:nonzero;stroke:none"
           d="m 0,0 -4.301,0 0,2.939 11.588,0 0,-2.939 -4.302,0 0,-17.983 -2.985,0 L 0,0 Z" /></g><g
         transform="translate(280.9204,237.1465)"
         id="g60"><path
           inkscape:connector-curvature="0"
           id="path62"
           style="fill:#000000;fill-opacity:1;fill-rule:nonzero;stroke:none"
           d="m 0,0 2.632,0 0,-5.285 0,-2.404 c 0.809,1.809 2.681,2.629 4.477,2.601 2.151,0 3.517,-0.792 4.403,-2.15 0.86,-1.328 1.19,-3.165 1.19,-5.285 l 0,-8.4 -2.657,0 0,8.257 c 0,1.386 -0.229,2.602 -0.785,3.448 -0.607,0.85 -1.518,1.359 -2.884,1.359 -1.392,0 -2.353,-0.594 -2.91,-1.414 -0.582,-0.82 -0.834,-1.922 -0.834,-2.97 l 0,-8.68 -2.632,0 L 0,0 Z" /></g><g
         transform="translate(308.0269,225.2715)"
         id="g64"><path
           inkscape:connector-curvature="0"
           id="path66"
           style="fill:#000000;fill-opacity:1;fill-rule:nonzero;stroke:none"
           d="M 0,0 C -0.127,2.035 -1.949,4.326 -4.555,4.269 -7.236,4.269 -8.982,2.093 -9.109,0 L 0,0 Z m -9.159,-2.29 c 0.126,-3.11 2.555,-4.692 4.63,-4.692 1.846,0 3.213,0.988 3.971,2.599 l 2.733,0 C 1.517,-6.077 0.556,-7.351 -0.608,-8.2 c -1.164,-0.875 -2.53,-1.299 -3.921,-1.299 -4.504,0 -7.287,4.043 -7.287,8.113 0,4.411 3.086,8.173 7.261,8.173 1.973,0 3.77,-0.821 5.085,-2.263 C 2.149,2.688 2.833,0.283 2.604,-2.29 l -11.763,0 z" /></g><g
         transform="translate(318.4063,237.1465)"
         id="g68"><path
           inkscape:connector-curvature="0"
           id="path70"
           style="fill:#000000;fill-opacity:1;fill-rule:nonzero;stroke:none"
           d="M 0,0 3.036,0 6.73,-16.371 10.398,0 12.65,0 16.37,-16.398 20.013,0 l 3.035,0 -5.16,-20.923 -2.759,0 -3.617,15.863 -3.618,-15.863 -2.834,0 L 0,0 Z" /></g><g
         transform="translate(344.48,223.8857)"
         id="g72"><path
           inkscape:connector-curvature="0"
           id="path74"
           style="fill:#000000;fill-opacity:1;fill-rule:nonzero;stroke:none"
           d="m 0,0 c 0,-3.053 2.074,-5.343 4.706,-5.343 2.631,0 4.706,2.29 4.706,5.371 0,3.082 -2.075,5.373 -4.706,5.373 C 2.074,5.401 0,3.11 0,0.028 L 0,0 Z m -2.631,0.058 c 0,4.1 2.707,8.115 7.337,8.115 4.63,0 7.337,-4.015 7.337,-8.145 0,-4.128 -2.707,-8.113 -7.337,-8.113 -4.63,0 -7.337,3.985 -7.337,8.113 l 0,0.03 z" /></g><g
         transform="translate(359.2134,231.6055)"
         id="g76"><path
           inkscape:connector-curvature="0"
           id="path78"
           style="fill:#000000;fill-opacity:1;fill-rule:nonzero;stroke:none"
           d="m 0,0 2.479,0 0,-2.263 c 0.785,1.81 2.228,2.687 4.1,2.716 l 0,-2.941 -0.177,0 c -2.481,0 -3.77,-1.528 -3.77,-4.58 l 0,-8.314 -2.632,0 L 0,0 Z" /></g><path
         inkscape:connector-curvature="0"
         id="path80"
         style="fill:#000000;fill-opacity:1;fill-rule:nonzero;stroke:none"
         d="m 367.681,237.146 2.632,0 0,-20.923 -2.632,0 0,20.923 z" /><g
         transform="translate(375.6416,223.9141)"
         id="g82"><path
           inkscape:connector-curvature="0"
           id="path84"
           style="fill:#000000;fill-opacity:1;fill-rule:nonzero;stroke:none"
           d="m 0,0 c 0.025,-2.828 1.796,-5.399 4.833,-5.399 1.341,0 2.58,0.622 3.44,1.611 0.886,0.99 1.392,2.347 1.341,3.873 0,1.528 -0.531,2.856 -1.391,3.789 C 7.362,4.837 6.174,5.4 4.833,5.4 1.923,5.4 0,2.912 0,0.029 L 0,0 Z m 12.094,-7.69 -2.531,0 0,2.687 C 8.805,-6.587 7.262,-8.142 4.428,-8.142 c -4.326,0 -7.059,3.733 -7.059,8.171 0,4.778 3.086,8.116 7.008,8.116 2.809,0 4.528,-1.754 5.086,-2.97 l 0,2.715 0,5.342 2.631,0 0,-20.922 z" /></g><g
         transform="translate(392.7236,237.1465)"
         id="g86"><path
           inkscape:connector-curvature="0"
           id="path88"
           style="fill:#000000;fill-opacity:1;fill-rule:nonzero;stroke:none"
           d="m 0,0 2.378,0 -2.226,-5.852 -2.049,0 L 0,0 Z" /></g><g
         transform="translate(401.9131,227.5898)"
         id="g90"><path
           inkscape:connector-curvature="0"
           id="path92"
           style="fill:#000000;fill-opacity:1;fill-rule:nonzero;stroke:none"
           d="m 0,0 c 0,1.188 -0.657,2.093 -1.998,2.065 -1.291,0 -2,-0.961 -1.974,-1.979 0.05,-1.216 1.037,-1.782 2.505,-2.233 2.099,-0.652 4.402,-1.332 4.478,-4.637 0.05,-2.998 -2.176,-5.033 -4.908,-5.033 -2.176,0 -4.884,1.383 -5.009,4.89 l 2.605,0 c 0.102,-1.865 1.443,-2.489 2.429,-2.489 1.265,0 2.252,0.99 2.252,2.291 -0.026,1.526 -1.064,2.035 -3.517,2.94 -1.923,0.652 -3.441,1.669 -3.467,3.988 0,2.912 2.126,4.666 4.63,4.666 1.899,0 4.378,-1.047 4.579,-4.469 L 0,0 Z" /></g><g
         transform="translate(415.5146,237.1465)"
         id="g94"><path
           inkscape:connector-curvature="0"
           id="path96"
           style="fill:#000000;fill-opacity:1;fill-rule:nonzero;stroke:none"
           d="m 0,0 9.766,0 0,-2.939 -6.781,0 0,-6.108 6.68,0 0,-2.913 -6.68,0 0,-8.963 -2.985,0 L 0,0 Z" /></g><path
         inkscape:connector-curvature="0"
         id="path98"
         style="fill:#000000;fill-opacity:1;fill-rule:nonzero;stroke:none"
         d="m 427.704,231.605 2.632,0 0,-15.382 -2.632,0 0,15.382 z m 0,5.541 2.632,0 0,-3.109 -2.632,0 0,3.109 z" /><g
         transform="translate(433.9268,231.6055)"
         id="g100"><path
           inkscape:connector-curvature="0"
           id="path102"
           style="fill:#000000;fill-opacity:1;fill-rule:nonzero;stroke:none"
           d="m 0,0 2.479,0 0,-2.376 c 0.659,1.584 2.202,2.857 4.656,2.829 4.403,-0.057 5.566,-3.619 5.566,-6.814 l 0,-9.021 -2.656,0 0,8.342 c 0,2.771 -0.962,4.749 -3.644,4.722 C 3.82,-2.346 2.632,-4.155 2.632,-6.814 l 0,-8.568 -2.632,0 L 0,0 Z" /></g><g
         transform="translate(461.2822,225.2715)"
         id="g104"><path
           inkscape:connector-curvature="0"
           id="path106"
           style="fill:#000000;fill-opacity:1;fill-rule:nonzero;stroke:none"
           d="M 0,0 C -0.128,2.035 -1.949,4.326 -4.555,4.269 -7.236,4.269 -8.982,2.093 -9.109,0 L 0,0 Z m -9.159,-2.29 c 0.126,-3.11 2.555,-4.692 4.63,-4.692 1.846,0 3.213,0.988 3.972,2.599 l 2.732,0 C 1.518,-6.077 0.556,-7.351 -0.608,-8.2 c -1.164,-0.875 -2.53,-1.299 -3.921,-1.299 -4.504,0 -7.287,4.043 -7.287,8.113 0,4.411 3.087,8.173 7.261,8.173 1.973,0 3.77,-0.821 5.086,-2.263 C 2.15,2.688 2.832,0.283 2.605,-2.29 l -11.764,0 z" /></g><g
         transform="translate(472.6201,227.5898)"
         id="g108"><path
           inkscape:connector-curvature="0"
           id="path110"
           style="fill:#000000;fill-opacity:1;fill-rule:nonzero;stroke:none"
           d="m 0,0 c 0,1.188 -0.659,2.093 -2,2.065 -1.29,0 -1.999,-0.961 -1.974,-1.979 0.051,-1.216 1.038,-1.782 2.505,-2.233 2.102,-0.652 4.403,-1.332 4.479,-4.637 0.052,-2.998 -2.176,-5.033 -4.907,-5.033 -2.178,0 -4.885,1.383 -5.01,4.89 l 2.605,0 c 0.102,-1.865 1.443,-2.489 2.429,-2.489 1.266,0 2.252,0.99 2.252,2.291 -0.025,1.526 -1.063,2.035 -3.517,2.94 -1.924,0.652 -3.442,1.669 -3.466,3.988 0,2.912 2.125,4.666 4.63,4.666 1.898,0 4.376,-1.047 4.579,-4.469 L 0,0 Z" /></g><g
         transform="translate(479.6748,229.3145)"
         id="g112"><path
           inkscape:connector-curvature="0"
           id="path114"
           style="fill:#000000;fill-opacity:1;fill-rule:nonzero;stroke:none"
           d="m 0,0 -2.478,0 0,2.291 2.478,0 0,5.541 2.631,0 0,-5.541 2.657,0 0,-2.291 -2.657,0 0,-13.091 -2.631,0 L 0,0 Z" /></g><g
         transform="translate(512.3477,222.585)"
         id="g116"><path
           inkscape:connector-curvature="0"
           id="path118"
           style="fill:#000000;fill-opacity:1;fill-rule:nonzero;stroke:none"
           d="m 0,0 c -1.164,-3.817 -4.631,-6.757 -8.881,-6.757 -5.642,0 -9.791,4.947 -9.791,10.885 0,5.74 3.972,10.83 9.767,10.83 5.034,-0.027 8.019,-3.987 8.929,-6.87 l -3.162,0 c -0.607,1.356 -2.505,3.902 -5.795,3.93 -3.971,0 -6.755,-3.647 -6.755,-7.89 0,-4.354 2.835,-7.945 6.783,-7.945 3.617,0 5.362,3.055 5.767,3.817 L 0,0 Z" /></g><g
         transform="translate(527.4111,216.2236)"
         id="g120"><path
           inkscape:connector-curvature="0"
           id="path122"
           style="fill:#000000;fill-opacity:1;fill-rule:nonzero;stroke:none"
           d="m 0,0 -2.48,0 0,2.376 C -3.138,0.792 -4.681,-0.48 -7.134,-0.451 -11.563,-0.423 -12.7,3.168 -12.7,6.361 l 0,9.021 2.631,0 0,-8.341 c 0,-2.772 0.962,-4.75 3.669,-4.75 2.581,0.028 3.769,1.865 3.769,4.496 l 0,8.595 2.631,0 L 0,0 Z" /></g><g
         transform="translate(531.8213,229.3145)"
         id="g124"><path
           inkscape:connector-curvature="0"
           id="path126"
           style="fill:#000000;fill-opacity:1;fill-rule:nonzero;stroke:none"
           d="m 0,0 -2.478,0 0,2.291 2.478,0 0,5.541 2.631,0 0,-5.541 2.657,0 0,-2.291 -2.657,0 0,-13.091 -2.631,0 L 0,0 Z" /></g><path
         inkscape:connector-curvature="0"
         id="path128"
         style="fill:#000000;fill-opacity:1;fill-rule:nonzero;stroke:none"
         d="m 539.023,237.146 2.631,0 0,-20.923 -2.631,0 0,20.923 z" /><g
         transform="translate(556.0381,225.2715)"
         id="g130"><path
           inkscape:connector-curvature="0"
           id="path132"
           style="fill:#000000;fill-opacity:1;fill-rule:nonzero;stroke:none"
           d="M 0,0 C -0.128,2.035 -1.949,4.326 -4.556,4.269 -7.237,4.269 -8.982,2.093 -9.108,0 L 0,0 Z m -9.159,-2.29 c 0.125,-3.11 2.555,-4.692 4.629,-4.692 1.847,0 3.214,0.988 3.973,2.599 l 2.732,0 C 1.518,-6.077 0.556,-7.351 -0.608,-8.2 c -1.164,-0.875 -2.53,-1.299 -3.922,-1.299 -4.504,0 -7.287,4.043 -7.287,8.113 0,4.411 3.088,8.173 7.261,8.173 1.974,0 3.771,-0.821 5.087,-2.263 C 2.15,2.688 2.832,0.283 2.605,-2.29 l -11.764,0 z" /></g><g
         transform="translate(561.2314,231.6055)"
         id="g134"><path
           inkscape:connector-curvature="0"
           id="path136"
           style="fill:#000000;fill-opacity:1;fill-rule:nonzero;stroke:none"
           d="m 0,0 2.48,0 0,-2.263 c 0.783,1.81 2.225,2.687 4.097,2.716 l 0,-2.941 -0.177,0 c -2.478,0 -3.769,-1.528 -3.769,-4.58 l 0,-8.314 -2.631,0 L 0,0 Z" /></g><g
         transform="translate(574.166,216.6758)"
         id="g138"><path
           inkscape:connector-curvature="0"
           id="path140"
           style="fill:#000000;fill-opacity:1;fill-rule:nonzero;stroke:none"
           d="m 0,0 -5.263,14.93 2.834,0 3.795,-11.254 3.846,11.254 2.833,0 -7.513,-20.981 -2.808,0 L 0,0 Z" /></g></g></g></svg>