<?xml version="1.0" encoding="utf-8"?>
<!-- Generator: Adobe Illustrator 16.0.0, SVG Export Plug-In . SVG Version: 6.00 Build 0)  -->
<!DOCTYPE svg PUBLIC "-//W3C//DTD SVG 1.1//EN" "http://www.w3.org/Graphics/SVG/1.1/DTD/svg11.dtd">
<svg version="1.1" id="Layer_1" xmlns="http://www.w3.org/2000/svg" xmlns:xlink="http://www.w3.org/1999/xlink" x="0px" y="0px"
	 width="1089px" height="320px" viewBox="0 0 1089 320" enable-background="new 0 0 1089 320" xml:space="preserve">
<g>
	<path fill="#231F20" d="M736.406,61.519c9.989-3.494,20.994,4.453,22.501,14.528c1.748,10.554-8.411,20.982-18.979,19.728
		c-8.471-0.705-15.711-8.47-15.699-16.98C723.863,71.144,729.4,64.098,736.406,61.519L736.406,61.519z"/>
	<path fill="#231F20" d="M400.853,119.448c-0.114-14.697-0.056-29.408-0.014-44.105c10.78,0.142,21.573,0.127,32.353,0.042
		c-0.07,14.684,0.113,29.353-0.084,44.035c9.667,0,19.347,0.085,29.027-0.042c-0.099,8.173,0.761,16.359,0.029,24.533
		c-9.696,0.169-19.56-0.705-29.156,0.395l-1.31,0.746c-0.521,26.266,0.437,52.545-0.451,78.813c-0.07,4.467,0.55,8.919,1.396,13.303
		c0.45-0.198,1.324-0.592,1.774-0.79c2.156,1.86,3.89,4.579,6.933,5.044c7.004,1.34,14.204,0.592,21.264-0.027
		c-0.69,8.327-0.268,16.697-0.479,25.039c-14.387,1.55-29.479,3.396-43.429-1.521c-6.242-2.059-11.695-6.609-14.189-12.766
		c-3.142-7.524-3.538-15.839-3.707-23.885c0-28.141-0.057-56.281,0.029-84.42c-7.215-0.014-14.429,0.014-21.63-0.014
		c-0.028-8.131-0.028-16.262,0.056-24.378C386.466,119.434,393.652,119.434,400.853,119.448L400.853,119.448z"/>
	<path fill="#2B2A2A" d="M1031.431,108.133c4.649-0.029,9.299,0.013,13.965,0c-0.156,1.057-0.269,2.128-0.367,3.199
		c-1.214-0.057-3.608-0.17-4.806-0.225c-1.185-0.029-2.354-0.029-3.509-0.015c-1.747,0.042-3.494,0.099-5.214,0.183
		C1031.486,110.486,1031.445,108.922,1031.431,108.133L1031.431,108.133z"/>
	<path fill="#080808" d="M1067.561,108.175c-1.408-0.057-2.79-0.113-4.172-0.168c-1.96,4.071-3.452,8.341-5.384,12.413
		c-1.408-4.184-2.874-8.355-4.748-12.371c-1.423,0.027-2.833,0.055-4.227,0.069c-0.127,5.848-0.07,11.697-0.058,17.544
		c0.72,0,2.156-0.016,2.874-0.016c-0.099-4.79-0.226-9.581-0.041-14.358c2.057,5.2,3.508,10.696,6.525,15.472
		c2.605-4.96,4.323-10.299,6.24-15.557c0.101,4.821-0.056,9.625-0.099,14.43c0.775,0.029,2.313,0.084,3.088,0.099
		C1067.49,119.884,1067.531,114.022,1067.561,108.175z"/>
	<path fill="#050505" d="M1036.714,111.092c1.155-0.014,2.324-0.014,3.509,0.015c-0.422,4.833-0.31,9.68-0.31,14.527
		c-0.817,0.013-2.439,0.029-3.24,0.029C1036.714,120.815,1036.714,115.954,1036.714,111.092L1036.714,111.092z"/>
	<path fill="#F1151F" d="M332.004,137.245c-14.176-14.147-34.199-22.18-54.237-21.446c-15.444,0.028-30.621,5.381-42.951,14.611
		c-16.626,12.287-27.562,31.763-29.984,52.236c-0.254,5.96-0.156,11.921,0.14,17.881c3.339,28.463,24.209,54.067,51.658,62.564
		c14.5,4.426,30.635,5.285,44.966-0.24c1.239-0.041,2.364-0.388,3.377-1.043c26.104-8.52,45.171-33.535,48.83-60.477
		C357.071,178.136,348.688,153.675,332.004,137.245z"/>
	<path fill="#050404" d="M376.87,119.406l2.396,0.042c-0.084,8.116-0.084,16.247-0.056,24.378l-2.354,0.113
		C376.855,135.765,376.813,127.578,376.87,119.406L376.87,119.406z"/>
	<path fill="#231F20" d="M481.708,119.377c11.428,0.099,22.841,0.085,34.27-0.014c4.086,14.134,7.117,28.55,11.244,42.668
		c5.496,22.714,12.049,45.176,17.374,67.934c4.045-12.556,6.469-25.562,9.907-38.271c6.145-24.082,11.863-48.248,18.178-72.288
		c10.765,0.013,21.531,0.084,32.297-0.029c8.919,36.849,17.488,73.796,26.603,110.574c10.16-36.835,19.759-73.838,30.087-110.63
		c10.92,0.227,21.841,0.098,32.775,0.071c-15.569,48.995-30.509,98.187-45.98,147.21c-10.961,0.026-21.939-0.07-32.917,0.084
		c-9.397-36.538-18.077-73.245-27.448-109.784c-1.297,3.973-2.003,8.116-2.986,12.161l-0.326,0.197
		c-0.492,0.296-1.492,0.902-1.986,1.211c-3.014,8.13-4.424,16.742-6.708,25.083c-1.31,4.593-1.703,9.371-1.451,14.12
		c-3.803,19.135-9.256,37.932-13.612,56.954c-11.287-0.041-22.573,0-33.874-0.041C511.75,217.591,497.066,168.372,481.708,119.377
		L481.708,119.377z"/>
	<path fill="#231F20" d="M725.414,119.363c10.793,0.1,21.586,0.127,32.395,0.014c-0.013,49.093-0.084,98.188,0.028,147.282
		c-10.837-0.087-21.656-0.072-32.48,0.012C725.498,217.564,725.37,168.47,725.414,119.363L725.414,119.363z"/>
	<path fill="#050505" d="M888.221,116.432c-6.861-0.633-13.864-1.31-20.655,0.197c-16.122,3.707-29.479,16.444-34.904,31.959
		c0.069-9.722,0.056-19.445,0.099-29.154c-9.188,0-18.375,0.014-27.549,0l-2.451-0.057c0.026,49.066,0.098,98.145-0.029,147.225
		c10.695-0.058,21.404-0.058,32.114-0.015c-0.154-24.109-0.07-48.22-0.058-72.329c-0.11-5.567,0.974-11.062,2.072-16.486
		l0.324-0.127c3.184-12.104,11.021-23.448,22.786-28.463c4.918-2.41,10.498-2.185,15.81-2.832c4.144,0.506,8.315,0.872,12.485,1.211
		C888.137,137.189,888.235,126.803,888.221,116.432z"/>
	<path fill="#050505" d="M431.698,145.051l1.31-0.746c0.325,26.97,0,53.969,0.156,80.939c-0.042,3.763,0.817,7.426,1.254,11.132
		c-0.45,0.198-1.325,0.592-1.774,0.79c-0.846-4.384-1.466-8.836-1.396-13.303C432.135,197.596,431.177,171.317,431.698,145.051
		L431.698,145.051z"/>
	<path fill="#050505" d="M174.874,155.323c-0.817-12.681-7.976-25.237-19.023-31.79c-10.146-6.566-22.7-8.074-34.551-7.792
		c-16.218,0.551-32.606,8.991-40.835,23.223c-0.226-0.127-0.69-0.38-0.916-0.507c0.59-24.899-0.015-49.813,0.31-74.712
		c-10.766,0-21.531,0.042-32.297-0.027c0.042,67.637,0.057,135.26,0,202.898c10.751-0.099,21.518-0.085,32.269,0
		c-0.113-28.803,0-57.591-0.071-86.393c-0.113-6.384,1.423-12.641,3.325-18.685c2.847-3.312,4.51-7.511,7.709-10.54
		c4.029-4.256,9.413-6.75,14.767-8.891l0.254-0.282c7.821-1.086,15.825-0.931,23.363,1.592c2.861,2.663,6.581,4.424,8.708,7.821
		c2.438,3.749,3.198,8.256,4.862,12.343c1.183,8.792,0.746,17.67,0.816,26.506c-0.042,25.504,0.085,51.01-0.056,76.515
		c10.695-0.043,21.376-0.101,32.071,0.015c-0.013-30.692-0.013-61.382-0.013-92.073
		C175.537,168.133,175.818,161.693,174.874,155.323z"/>
	<path fill="#050505" d="M582.797,170.471c0.494-0.31,1.494-0.916,1.986-1.211c-3.565,13.415-6.156,27.097-10.146,40.414
		c-0.252-4.749,0.142-9.526,1.451-14.12C578.373,187.213,579.783,178.602,582.797,170.471L582.797,170.471z"/>
	<path fill="#E59095" d="M204.972,200.528c-1.564-5.834-1.649-12.034-0.14-17.881C204.578,188.607,204.676,194.567,204.972,200.528
		L204.972,200.528z"/>
	<path fill="#080607" d="M1036.39,201.177h2.874c0.649-7.906,0.875-15.995-0.703-23.814c-2.957-23.22-18.063-45.492-39.256-55.525
		c-0.095-0.049-0.182-0.095-0.278-0.145c-25.724-13.058-53.095-1.951-53.095-1.951l0.003,0.001
		c-17.407,6.422-31.819,20.69-38.802,37.851c-8.061,18.022-9.231,38.651-5.103,57.829l-0.056,0.269
		c2.607,12.062,7.622,23.813,15.98,33.028c12.441,14.304,31.548,21.913,50.361,21.771c23.025,1.313,48.077-8.581,60.127-28.984
		c4.636-6.173,6.848-13.655,8.793-21.01c-10.244-0.029-20.503-0.043-30.746,0.014c-0.27,1.043-0.833,3.128-1.113,4.171
		c-2.152,3.356-4.109,6.894-6.748,9.88c-2.263,2.17-4.516,3.988-6.748,5.497c-0.378,0.208-0.756,0.415-1.144,0.605
		c-0.037,0.073-0.079,0.145-0.117,0.218c-13.696,8.586-26.507,5.748-35.464,1.244c-0.055-0.094-0.121-0.179-0.173-0.273
		c-0.605-0.244-1.203-0.506-1.795-0.777c-5.773-3.247-9.6-6.933-10.502-7.841c-7.698-8.431-10.516-20.41-10.74-31.649
		C966.767,201.261,1001.599,202.064,1036.39,201.177z M930.848,180.898l1.281-0.14c0.043-8.385,2.298-16.881,7.3-23.687
		c9.258-13.838,28.761-19.954,44.076-13.176c14.53,5.975,22.898,21.517,23.434,36.736l1.313,0.085
		c-4.834,2.974-10.697,1.761-16.05,1.917c-17.825,0-35.652-0.156-53.463,0.084C935.963,182.857,933.271,182.195,930.848,180.898z"/>
</g>
</svg>
