<?xml version="1.0" encoding="utf-8"?>
<!DOCTYPE svg PUBLIC "-//W3C//DTD SVG 1.1//EN" "http://www.w3.org/Graphics/SVG/1.1/DTD/svg11.dtd">
<svg version="1.1" id="Layer_1" xmlns="http://www.w3.org/2000/svg" xmlns:xlink="http://www.w3.org/1999/xlink" x="0px" y="0px"
	 viewBox="0 0 387.2 66.9" enable-background="new 0 0 387.2 66.9" xml:space="preserve">
<path fill-rule="evenodd" clip-rule="evenodd" fill="#EB0029" d="M149,23.4c9.5,0,17.1,8.9,17.1,19.8c0,10.9-7.7,19.8-17.1,19.8
	c-9.5,0-17.1-8.9-17.1-19.8C131.9,32.2,139.5,23.4,149,23.4 M149,19.5c-15.2,0-27.6,10.6-27.6,23.7c0,13.1,12.4,23.7,27.6,23.7
	c15.2,0,27.6-10.6,27.6-23.7C176.6,30.1,164.3,19.5,149,19.5z"/>
<path fill-rule="evenodd" clip-rule="evenodd" fill="#5C6670" d="M323.6,35.3c-2.6-7-8.7-12-15.8-12c-9.5,0-17.1,8.9-17.1,19.8
	c0,10.9,7.7,19.8,17.1,19.8c7.2,0,15.9-3.1,19.5-9.6l1.3,0.3l-1.7,8.4c-5.5,3-12.3,4.7-19.1,4.7c-15.2,0-27.6-10.6-27.6-23.7
	c0-13.1,12.4-23.7,27.6-23.7c2.3,0,4.6,0.2,6.8,0.7c1.6,0.3,3.2,0.8,4.7,1.4c0.5,0.2,0.9,0.4,1.4,0.3c0.5,0,0.6-0.1,0.9-0.5h1.7
	l2.8,13.3L323.6,35.3z"/>
<path fill-rule="evenodd" clip-rule="evenodd" fill="#5C6670" d="M363.1,19.6h1.7v12.3h-2.1c-0.4-2.9-1.8-5.2-4.2-6.8
	c-5.8-4-17.8-3.8-17.8,3.7c0,1.9,0.8,3.6,2.4,5.2c1.6,1.6,3.5,2.2,8.9,4.7c6.3,2.9,10.6,4.8,12.7,6.9c8.2,8,0.9,21.3-13.7,21.3
	c-2.7,0-6.2-0.6-10.4-1.7c-3.5-0.9-4.2-1.3-5.6,1.7h-1.7V52.2h2c0,3.4,1.5,6.1,4.3,8.1c2.9,2,6.2,3,10.1,3c6,0,10.3-2.6,11-6.1
	c0.3-1.7-0.1-3.7-1.9-5.4c-1.8-1.7-5.5-2.7-11.2-5.3c-4.7-2.2-7.8-3.9-9.3-5.1c-9.7-7.9-4.4-21.9,11.7-21.9c2.7,0,5.5,0.4,8.6,1.2
	C361.8,21.5,362.3,21.8,363.1,19.6"/>
<path fill-rule="evenodd" clip-rule="evenodd" fill="#5C6670" d="M247.8,44.5V57c0,6.4,2.6,5.4,8,5.8l9.2,0c6.1,0,8.7-2.9,10.1-8.5
	l2.2,0.5l-2.5,11h-18.9H243h-13.5v-2.2c1.4-0.1,3.4,0,5-0.4c3.3-0.8,3-4.6,3-7.4V35.6v-4.1c0-2.7,0.3-6.5-3-7.4
	c-1.6-0.4-3.6-0.4-5-0.4v-2.2H243h29.8l2.8,13.3l-2.5,0.6c-0.9-2.4-2.2-4.6-3.8-6.4c-2.5-2.8-4.5-4.5-8.3-4.6c-1.1-0.1-2.3,0-3.5,0
	h-0.7c-5.2,0-9-0.7-9,5.2V36v5.4h11.4c2,0,3.3-0.4,4.1-1.1c0.7-0.7,1.2-2.1,1.6-4.1h1.5v13.3h-1.5c-0.6-2.2-1.3-3.6-2.1-4.2
	c-0.8-0.5-2.6-0.8-5.3-0.8H247.8z"/>
<path fill-rule="evenodd" clip-rule="evenodd" fill="#EB0029" d="M12.6,0c2.3,0,4.4,0.9,6,2.5C20,4,21,6.1,21,8.4
	c0,2.3-0.9,4.4-2.5,6c-1.5,1.5-3.6,2.5-6,2.5c-2.3,0-4.4-0.9-6-2.5c-1.5-1.5-2.5-3.6-2.5-6c0-2.3,0.9-4.4,2.5-6
	C8.1,0.9,10.2,0,12.6,0"/>
<path fill-rule="evenodd" clip-rule="evenodd" fill="#5C6670" d="M180.5,21.5l-6.4,0l0,2.2h1.1c4.8,0,6.1,4,8,7.6L200,65.8l3.3,0
	l15.5-37.4c1.5-3.1,5.1-4.8,8.4-4.8l0-2.2h-17.6l0,2.2h0.7c5.9,0.2,2.8,5.7,1.4,9.2L204,51.3l-10.1-20.6
	C190.8,24.3,188.3,21.5,180.5,21.5"/>
<path fill-rule="evenodd" clip-rule="evenodd" fill="#EB0029" d="M54,21.4h11.2c2.6,0,4.9,1,6.7,2.6l34.7,30.8l0-23.4
	c0-2.7,0.3-6.5-3-7.4c-1.6-0.4-3.6-0.4-5-0.4l0-2.2h20.8v2.2c-1.4,0.1-3.4,0-5,0.4c-3.3,0.8-3,4.6-3,7.4v22c0,3.2,0.8,6.2,2.7,8.1
	c1.2,1.2,2.8,2,5.2,2l0,2.2h-11.6c-2.6,0-4.9-1-6.7-2.6L54,21.4z"/>
<path fill-rule="evenodd" clip-rule="evenodd" fill="#EB0029" d="M96.9,65.8H85.7c-2.6,0-4.9-1-6.7-2.6L44.3,32.4l0,23.4
	c0,2.7-0.3,6.5,3,7.4c1.6,0.4,3.6,0.4,5,0.4l0,2.2H31.4v-2.2c1.4-0.1,3.4,0,5-0.4c3.3-0.8,3-4.6,3-7.4v-22c0-3.2-0.8-6.2-2.7-8.1
	c-1.2-1.2-2.8-2.1-5.2-2.1l0-2.2H43c2.6,0,4.9,1,6.7,2.6L96.9,65.8z"/>
<path fill-rule="evenodd" clip-rule="evenodd" fill="#EB0029" d="M18.2,55.8c0,2.7-0.3,6.5,3,7.4c1.6,0.4,3.6,0.4,5,0.5l0,2.2H13.5
	H0v-2.2c1.4-0.1,3.4,0,5-0.5c3.3-0.8,3-4.6,3-7.4C8,47.7,8,39.5,8,31.4c0-2.7,0.3-6.5-3-7.4c-1.6-0.4-3.6-0.4-5-0.5v-2.2l18.3,0
	L18.2,55.8z"/>
<path fill="#5C6670" d="M380.7,19.4L380.7,19.4L380.7,19.4L380.7,19.4L380.7,19.4c-1.5,0-2.8,0.6-3.8,1.6c-1,1-1.6,2.3-1.6,3.8h0v0
	v0h0c0,1.5,0.6,2.8,1.6,3.8l0,0c1,1,2.3,1.6,3.8,1.6v0h0h0v0c1.5,0,2.8-0.6,3.8-1.6c1-1,1.6-2.3,1.6-3.8h0v0v0h0
	c0-1.5-0.6-2.8-1.6-3.8C383.5,20,382.1,19.4,380.7,19.4 M382,23.4c0-0.3-0.1-0.5-0.3-0.6c-0.2-0.1-0.4-0.2-0.7-0.2h-1.4v1.8h1.4
	c0.3,0,0.5-0.1,0.7-0.2C381.9,23.9,382,23.7,382,23.4z M381.9,27.9l-1.1-2.6h-1.2v2.6h-1.1v-6.3h2.7c0.3,0,0.5,0,0.8,0.1
	c0.2,0.1,0.4,0.2,0.6,0.4c0.2,0.2,0.3,0.3,0.4,0.6c0.1,0.2,0.1,0.5,0.1,0.8c0,0.4-0.1,0.8-0.3,1.1c-0.2,0.3-0.5,0.5-0.9,0.7l1.2,2.8
	H381.9z M380.7,18.3L380.7,18.3L380.7,18.3c1.8,0,3.4,0.7,4.6,1.9c1.2,1.2,1.9,2.8,1.9,4.6h0v0v0h0c0,1.8-0.7,3.4-1.9,4.6
	c-1.2,1.2-2.8,1.9-4.6,1.9v0h0h0v0c-1.8,0-3.4-0.7-4.6-1.9v0c-1.2-1.2-1.9-2.8-1.9-4.6h0v0v0h0c0-1.8,0.7-3.4,1.9-4.6
	C377.2,19,378.9,18.3,380.7,18.3L380.7,18.3L380.7,18.3z"/>
</svg>
