<svg xmlns="http://www.w3.org/2000/svg" version="1.1" xmlns:xlink="http://www.w3.org/1999/xlink" viewBox="0 0 419.99998 99.999993" height="86" width="360" xml:space="preserve" role="img" id="i_svg2"><metadata id="i_metadata8"></metadata><defs id="i_defs6"><clipPath id="i_clipPath28" clipPathUnits="userSpaceOnUse"><path id="i_path30" d="m 178.648,511.364 -7.66,-18.581 -34.54,-7.548 -3.17,-0.4 -0.049,-1.501 9.429,-13.208 2.26,1.868 0.07,1.741 -8.45,9.65 33,7.5 0.47,-0.371 c 0.35,-0.18 0.73,-0.28 1.14,-0.28 l 0,0 0.73,0.18 25.47,-21.5 -18.77,-3.859 -0.101,-2.56 0.601,-2.401 21.08,6.731 1.23,18.909 -0.26,1.171 -1.31,-0.72 -1.21,-15.29 -25.68,21.5 0.7,1.84 0.14,-0.689 -0.17,-0.862 0.26,-0.209 0.21,1.289 -0.19,1.131 6.07,15.959 9.029,-5.571 0.872,0.673 0.029,0.958 -9.91,5.59 -1.32,-1.14 z"></path></clipPath><linearGradient id="i_linearGradient36" spreadMethod="pad" gradientTransform="matrix(-22.199951,24.30011,24.30011,22.199951,188.53613,464.14551)" gradientUnits="userSpaceOnUse" y2="0" x2="1" y1="0" x1="0"><stop id="i_stop38" offset="0" style="stop-opacity:1;stop-color:#231f20"></stop><stop id="i_stop40" offset="1" style="stop-opacity:1;stop-color:#143f4a"></stop></linearGradient><clipPath id="i_clipPath48" clipPathUnits="userSpaceOnUse"><path id="i_path50" d="m 0,841.89 595.275,0 L 595.275,0 0,0 0,841.89 Z"></path></clipPath></defs><g transform="matrix(1.25,0,0,-1.25,-151.61153,657.39532)" id="i_g10"><g transform="translate(174.6982,448.3052)" id="i_g12"><path id="i_path14" style="fill:#c0cbd0;fill-opacity:1;fill-rule:evenodd;stroke:none" d="m 0,0 -0.4,5.16 0.89,21.649 3.59,-2.069 -7.05,6.61 -9.953,-2.524 0.053,1.684 -0.16,-5.051 L -28.86,6.41 -47,23.229 l -0.06,4.861 9.42,4.16 -6.84,3.4 -0.07,4.36 18.25,14.029 12.14,-4.109 -0.21,-3.52 -1.52,-0.361 9.76,1.881 3.04,5.09 -3.76,-1.051 -3.85,9.281 -0.28,3.02 15.35,2.589 2.659,-3.66 5.891,2.1 10.1,-8.75 -0.14,-3.68 -12.17,-6.65 0.08,-0.02 -0.979,-1.4 7.029,-5.299 -0.22,2.85 15.93,-0.151 5.68,-22.08 0.09,-3.859 -9.9,1.019 1.92,-9.64 L 30.359,2.5 0,0 Z"></path></g><g transform="translate(174.0781,453.4556)" id="i_g16"><path id="i_path18" style="fill:#134c5d;fill-opacity:1;fill-rule:evenodd;stroke:none" d="m 0,0 -0.21,23.6 3.54,0.189 -6.87,6.391 -11.44,-2.821 2.87,-1.99 -16.43,-18.551 -18.02,16.061 8.92,8.199 0,0.012 -6.09,3.789 17.38,15.121 12.29,-5.211 -2.08,-2.56 9.66,1.82 3.08,7.16 -2.73,-0.699 -3.93,8.638 14.18,3.34 2.58,-3.568 5.85,2.039 11.03,-9.551 -11.79,-6.019 -1.1,1.17 L 9.2,41 16.07,35.85 15.88,38.619 33.06,37.969 39.03,14.898 27.979,15.59 31.14,2.5 0,0 Z"></path></g><g transform="translate(147.6382,503.6138)" id="i_g20"><path id="i_path22" style="fill:#f4c819;fill-opacity:1;fill-rule:evenodd;stroke:none" d="m 0,0 12.75,-5.318 -2.13,-2.401 9.04,1.85 L 22.75,0.83 20.18,0.131 16.15,9.102 30.75,12.5 33,8.932 30.919,9.102 23.02,-9.939 l -36.36,-7.94 -4.38,2.5 L 0,0 Z"></path></g><g id="i_g24"><g clip-path="url(#clipPath28)" id="i_g26"><g id="i_g32"><g id="i_g34"><path id="i_path42" style="fill:url(#linearGradient36);stroke:none" d="m 178.648,511.364 -7.66,-18.581 -34.54,-7.548 -3.17,-0.4 -0.049,-1.501 9.429,-13.208 2.26,1.868 0.07,1.741 -8.45,9.65 33,7.5 0.47,-0.371 c 0.35,-0.18 0.73,-0.28 1.14,-0.28 l 0,0 0.73,0.18 25.47,-21.5 -18.77,-3.859 -0.101,-2.56 0.601,-2.401 21.08,6.731 1.23,18.909 -0.26,1.171 -1.31,-0.72 -1.21,-15.29 -25.68,21.5 0.7,1.84 0.14,-0.689 -0.17,-0.862 0.26,-0.209 0.21,1.289 -0.19,1.131 6.07,15.959 9.029,-5.571 0.872,0.673 0.029,0.958 -9.91,5.59 -1.32,-1.14 z"></path></g></g></g></g><g id="i_g44"><g clip-path="url(#i_clipPath48)" id="i_g46"><g transform="translate(134.6382,482.854)" id="i_g52"><path id="i_path54" style="fill:#9da2a9;fill-opacity:1;fill-rule:evenodd;stroke:none" d="M 0,0 -0.64,-0.559 -1.5,0.34 -1.47,2.102 0,0 Z"></path></g><g transform="translate(133.2783,484.8345)" id="i_g56"><path id="i_path58" style="fill:#c0aa23;fill-opacity:1;fill-rule:evenodd;stroke:none" d="m 0,0 10.61,13.17 1.67,0.51 0,-0.94 -9.11,-12.34 34.54,7.549 7.66,18.58 -12.04,-1.949 -0.27,0.699 0,0.971 13.629,1.42 L 38.39,9.18 0,0 Z"></path></g><g transform="translate(179.1885,462.4341)" id="i_g60"><path id="i_path62" style="fill:#ffffff;fill-opacity:1;fill-rule:evenodd;stroke:none" d="m 0,0 -0.7,2.74 18.01,5.561 -24.21,20.59 -0.91,-0.18 c -0.67,0 -1.27,0.269 -1.7,0.699 l -0.14,0.201 -32.89,-7.23 8.4,-11.07 -2.37,-1.801 -9.511,12.931 10.721,14.18 1.75,-0.371 -9.08,-12.07 32.43,6.97 0.179,0.891 C -9.66,32.9 -8.81,33.51 -7.81,33.51 l 0.09,-0.03 6.82,16.18 -11.73,-1.91 -0.25,1.01 13.3,2.021 L 10.75,44.5 9.68,43.691 0.64,49.381 -6.021,32.65 -5.61,32.041 c 0.12,-0.291 0.19,-0.6 0.19,-0.93 l -0.17,-0.861 24.17,-20.029 1.3,14.83 2.13,-0.44 L 21,6.631 0,0 Z"></path></g><g transform="translate(174.0781,453.4556)" id="i_g64"><path id="i_path66" style="fill:none;stroke:#ffffff;stroke-width:0.02;stroke-linecap:butt;stroke-linejoin:round;stroke-miterlimit:4;stroke-dasharray:none;stroke-opacity:1" d="m 0,0 -0.21,23.6 3.54,0.189 -6.87,6.391 -11.44,-2.821 2.87,-1.99 -16.43,-18.551 -18.02,16.061 6.87,6.31 -1.06,2.389 0.92,1.221 -0.46,0.291 -3.87,1.689 17.72,15.379 12.75,-5.318 -2.13,-2.401 9.04,1.85 3.09,6.699 -2.57,-0.699 -4.03,8.971 14.6,3.398 2.089,-3.34 0.221,-0.279 0.151,-0.109 5.779,2.029 11.03,-9.551 -11.79,-6.019 -1.1,1.17 L 9.2,41 16.07,35.85 15.88,38.619 33.06,37.969 39.03,14.898 27.979,15.59 31.14,2.5 0,0 Z"></path></g><g transform="translate(221.5767,497.6489)" id="i_g68"><path id="i_path70" style="fill:#134c5d;fill-opacity:1;fill-rule:evenodd;stroke:none" d="m 0,0 0,-23.681 4.598,0 0,19.801 0.073,0 4.306,-19.801 4.853,0 4.44,19.801 0.036,0 0,-19.801 4.597,0 0,23.681 -7.151,0 -4.209,-18.659 -0.061,0 L 7.213,0 0,0 Z"></path></g><g transform="translate(248.3003,497.6489)" id="i_g72"><path id="i_path74" style="fill:#134c5d;fill-opacity:1;fill-rule:evenodd;stroke:none" d="m 0,0 0,-23.681 18.015,0 0,4.074 -13.09,0 0,6.557 11.519,0 0,4.086 -11.519,0 0,4.89 12.566,0 0,4.074 L 0,0 Z"></path></g><g transform="translate(274.9502,478.0415)" id="i_g76"><path id="i_path78" style="fill:#134c5d;fill-opacity:1;fill-rule:evenodd;stroke:none" d="m 0,0 c 2.02,3.369 2.409,6.145 2.409,12.237 l 0,3.296 6.457,0 L 8.866,0 0,0 Z m -2.226,19.607 0,-7.042 C -2.226,6.531 -2.713,3.369 -4.902,0 l -2.116,0 0,-9.061 4.597,0 0,4.988 13.928,0 0,-4.988 4.609,0 0,9.061 -2.323,0 0,19.607 -16.019,0 z"></path></g><g transform="translate(298.4131,497.6489)" id="i_g80"><path id="i_path82" style="fill:#134c5d;fill-opacity:1;fill-rule:evenodd;stroke:none" d="m 0,0 -4.926,0 0,-23.681 5.28,0 9.657,16.869 0.061,0 0,-16.869 4.925,0 L 14.997,0 9.451,0 0.024,-16.505 0,-16.505 0,0 Z"></path></g><g transform="translate(326.8516,492.2983)" id="i_g84"><path id="i_path86" style="fill:#134c5d;fill-opacity:1;fill-rule:evenodd;stroke:none" d="m 0,0 0.074,0 3.223,-9.354 -6.326,0 L 0,0 Z m -2.773,5.351 -8.417,-23.681 5.194,0 1.665,4.889 8.71,0 1.532,-4.889 5.353,0 -8.321,23.681 -5.716,0 z"></path></g><g transform="translate(342.7852,497.6489)" id="i_g88"><path id="i_path90" style="fill:#134c5d;fill-opacity:1;fill-rule:evenodd;stroke:none" d="m 0,0 0,-13.673 c 0,-5.119 -0.559,-6.675 -2.772,-6.675 -0.658,0 -1.181,0.097 -1.473,0.195 l 0,-3.785 c 0.852,-0.266 1.898,-0.364 3.005,-0.364 4.659,0 6.168,3.978 6.168,10.107 l 0,10.121 6.689,0 0,-19.607 4.925,0 L 16.542,0 0,0 Z"></path></g><g transform="translate(367.2959,485.8149)" id="i_g92"><path id="i_path94" style="fill:#134c5d;fill-opacity:1;fill-rule:evenodd;stroke:none" d="M 0,0 C 0,6.617 3.758,8.281 6.434,8.281 9.11,8.281 12.856,6.617 12.856,0 12.856,-6.631 9.11,-8.295 6.434,-8.295 3.758,-8.295 0,-6.631 0,0 m -4.928,0 c 0,-11.094 8.224,-12.468 11.362,-12.468 3.126,0 11.347,1.374 11.347,12.468 0,11.093 -8.221,12.454 -11.347,12.454 C 3.296,12.454 -4.928,11.093 -4.928,0"></path></g><g transform="translate(388.1055,497.6489)" id="i_g96"><path id="i_path98" style="fill:#134c5d;fill-opacity:1;fill-rule:evenodd;stroke:none" d="m 0,0 0,-23.681 4.928,0 0,19.607 11.945,0 0,4.074 L 0,0 Z"></path></g><g transform="translate(412.3486,497.6489)" id="i_g100"><path id="i_path102" style="fill:#134c5d;fill-opacity:1;fill-rule:evenodd;stroke:none" d="m 0,0 -4.926,0 0,-23.681 5.279,0 9.657,16.869 0.062,0 0,-16.869 4.925,0 L 14.997,0 9.451,0 0.025,-16.505 0,-16.505 0,0 Z"></path></g><g transform="translate(445.0322,487.3091)" id="i_g104"><path id="i_path106" style="fill:#134c5d;fill-opacity:1;fill-rule:evenodd;stroke:none" d="m 0,0 -5.705,0 c -2.579,0 -3.857,1.341 -3.857,3.298 0,1.276 0.95,2.968 3.468,2.968 L 0,6.266 0,0 Z m 4.926,10.34 -11.97,0 c -4.573,0 -7.443,-3.455 -7.443,-7.213 0,-3.746 2.675,-5.863 5.352,-6.749 l -5.777,-9.719 5.777,0 5.486,9.267 3.649,0 0,-9.267 4.926,0 0,23.681 z"></path></g></g></g></g></svg>