<svg width="98" height="36" xmlns="http://www.w3.org/2000/svg" preserveAspectRatio="xMinYMax meet">
 <style type="text/css">.st0{fill:#F58220;}
	.st1{fill:#4D4F54;}</style>

 <title>Full-color-logo_DIGITAL</title>
 <g>
  <title>background</title>
  <rect fill="none" id="canvas_background" height="38" width="100" y="-1" x="-1"/>
 </g>
 <g>
  <title>Layer 1</title>
  <g id="svg_1">
   <path id="svg_2" d="m0.250216,1.950207c0,-0.7 0.6,-1.3 1.3,-1.3l4.1,0c0.7,0 1.9,0.1 2.6,0.3c0,0 1.1,0.2 1.9,1.4l9.8,15.3c0.4,0.6 1,1.6 1.4,2.2c0,0 2,3.4 3.8,7.7c-0.9,-4.7 -1.2,-6.8 -1.2,-9.6l0,-16c0,-0.7 0.6,-1.3 1.3,-1.3l4.8,0c0.7,0 1.3,0.6 1.3,1.3l0,32c0,0.7 -0.6,1.3 -1.3,1.3l-4.1,0c-0.7,0 -1.9,-0.1 -2.6,-0.3c0,0 -1.1,-0.2 -1.9,-1.4l-9.8,-15.3c-0.4,-0.6 -1,-1.6 -1.4,-2.2c0,0 -2,-3.4 -3.8,-7.7c0.9,4.7 1.2,6.8 1.2,9.6l0,16.1c0,0.7 -0.6,1.3 -1.3,1.3l-4.8,0c-0.7,0 -1.3,-0.6 -1.3,-1.3l0,-32.1z" class="st0"/>
   <path id="svg_3" d="m35.750216,19.050207c0,-0.7 0.6,-1.3 1.3,-1.3l12.5,0c0.7,0 1.3,0.6 1.3,1.3l0,3.4c0,0.7 -0.6,1.3 -1.3,1.3l-12.4,0c-0.7,0 -1.3,-0.6 -1.3,-1.3l0,-3.4l-0.1,0z" class="st1"/>
   <path id="svg_4" d="m54.950216,12.750207c0,-0.7 0.6,-1.3 1.3,-1.3l4.8,0c0.7,0 1.3,0.6 1.3,1.3l0,21.1c0,0.7 -0.6,1.3 -1.3,1.3l-4.8,0c-0.7,0 -1.3,-0.6 -1.3,-1.3l0,-21.1zm7.5,-9.1c0,2.1 -1.7,3.7 -3.7,3.7s-3.7,-1.7 -3.7,-3.7c0,-2.1 1.7,-3.7 3.7,-3.7s3.7,1.7 3.7,3.7" class="st1"/>
   <path id="svg_5" d="m64.550216,35.250207c2.5,-4.4 6.1,-10.2 9.2,-15l0.7,-1.1c0.4,-0.6 0.8,-1.3 1,-1.5c0.1,-0.2 0.1,-0.6 0,-0.8c-0.1,-0.2 -0.6,-0.9 -1,-1.5c0,0 -1.8,-2.6 -2.7,-4c-1.6,-2.4 -3.7,-5.8 -4.7,-7.6l-0.7,-1.1c-0.4,-0.6 -0.8,-1.3 -0.9,-1.6c-0.1,-0.2 0.3,-0.4 1.1,-0.4l6.9,0c0.7,0 1.4,0.2 1.6,0.5c0.1,0.3 0.5,1 0.9,1.6c0,0 3.4,5.3 6.3,9.5c1.4,2 5.1,6.9 5.5,7.5c0,0 3.8,5.2 5.7,8.3c1.3,2 2.6,3.8 3.5,5.4c0.3,0.6 0.6,1 1.1,1.9l-8.3,0c-0.7,0 -1.6,-0.5 -1.9,-1.2c0,0 -1.2,-2.3 -2.7,-4.9c-1.8,-3.2 -2.7,-4.8 -4.2,-7.1l-0.2,0.4c-0.4,0.6 -1,1.7 -1.3,2.3c0,0 -3.6,6.2 -5.3,9.5c-0.3,0.5 -1.1,1 -1.8,1l-7.8,0l0,-0.1z" class="st1"/>
   <path id="svg_6" d="m83.250216,10.050207c0,0 2.8,-4.7 4.9,-8.6c0.3,-0.5 1.1,-0.9 1.8,-0.9l6.1,0c0.7,0 1.2,0.2 1.1,0.4c-0.1,0.2 -0.6,0.9 -0.9,1.6l-6.9,10.9l-1.5,2.4l-4.6,-5.8" class="st1"/>
  </g>
 </g>
</svg>