<svg id="Layer_1" data-name="Layer 1" xmlns="http://www.w3.org/2000/svg" xmlns:xlink="http://www.w3.org/1999/xlink" viewBox="0 0 355.96 55"><defs><style>.cls-1{fill:url(#linear-gradient);}.cls-2{fill:#b2b4b4;}</style><linearGradient id="linear-gradient" y1="27.5" x2="140.9" y2="27.5" gradientUnits="userSpaceOnUse"><stop offset="0" stop-color="#66c8cf"/><stop offset="0.49" stop-color="#82c678"/><stop offset="1" stop-color="#ffcc52"/></linearGradient></defs><title>logo_oh_horiz</title><path id="_Compound_Path_" data-name="&lt;Compound Path&gt;" class="cls-1" d="M32.44,18.64Q37,24.53,37,33.5T32.44,48.29Q27.38,55,18.48,55t-14-6.71Q0,42.4,0,33.5T4.45,18.64Q9.5,12,18.48,12T32.44,18.64ZM8,21.51q-3.24,4.75-3.24,12A20.69,20.69,0,0,0,8,45.42a12.11,12.11,0,0,0,10.49,5.36,11.85,11.85,0,0,0,10.33-5.36A20.2,20.2,0,0,0,32.21,33.5q0-7.24-3.39-12a11.85,11.85,0,0,0-10.33-5.36A12.11,12.11,0,0,0,8,21.51Zm35.45-6.86A1.77,1.77,0,0,1,43.67,13a3,3,0,0,1,1.43-1,2.81,2.81,0,0,1,1.81,0,2,2,0,0,1,1.28,1.28L60.34,47.53,72.49,13.29A1.83,1.83,0,0,1,73.69,12a2.81,2.81,0,0,1,1.81,0,2.56,2.56,0,0,1,1.43,1,1.66,1.66,0,0,1,.3,1.66l-14,37.71q-.83,2.49-2.94,2.49T57.4,52.36ZM93,1.21A4.13,4.13,0,0,1,94,4a3.92,3.92,0,0,1-1,2.64,3.53,3.53,0,0,1-2.79,1.21,3.38,3.38,0,0,1-2.79-1.21A3.89,3.89,0,0,1,86.52,4a4.31,4.31,0,0,1,.91-2.79A3.39,3.39,0,0,1,90.22,0,3.53,3.53,0,0,1,93,1.21ZM88.55,12.38a2.41,2.41,0,0,1,1.66-.6,2.64,2.64,0,0,1,1.66.53A2,2,0,0,1,92.63,14V52.36a2.32,2.32,0,0,1-.75,1.81,2.26,2.26,0,0,1-1.66.68,2.41,2.41,0,0,1-1.66-.6,2.72,2.72,0,0,1-.68-1.89V14A1.88,1.88,0,0,1,88.55,12.38Zm43.07,2Q136,17.21,136,23.17V47.08a2.65,2.65,0,0,0,.68,2,2.84,2.84,0,0,0,2.11.76,2,2,0,0,1,1.51.6,2.52,2.52,0,0,1,.6,1.51A2.06,2.06,0,0,1,138.72,54q-4.3,0-6-1.06a3.81,3.81,0,0,1-1.36-3.32,17.7,17.7,0,0,1-5.13,3.47,21.8,21.8,0,0,1-8.9,1.74q-6.79,0-10.26-3.17-3.39-3-3.4-8.52,0-5,2.34-7.69,3.47-3.92,12.59-5.05,8.07-1.13,10.41-2.41t2.26-4.45A6.57,6.57,0,0,0,128.83,18q-2.64-2-7.92-2-5.13,0-7.69,2.26A8.35,8.35,0,0,0,110.58,24a2.09,2.09,0,0,1-1,1.51,2.31,2.31,0,0,1-1.66.45,2.2,2.2,0,0,1-1.51-.76A1.88,1.88,0,0,1,106,23.4a12.87,12.87,0,0,1,4.82-8.75q3.85-2.79,10.19-2.79Q127.78,11.85,131.62,14.34ZM131.32,31a11,11,0,0,1-3.69,1.73,59.54,59.54,0,0,1-8.9,1.74q-5.66.75-8,2.86a7.28,7.28,0,0,0-2.26,5.81q0,3.7,2.11,5.51,2.19,2,6.79,2a18.75,18.75,0,0,0,8.9-2,12,12,0,0,0,5.05-4.83Z"/><path class="cls-2" d="M173.13,11.43a16,16,0,0,0-7.65,1.82,18.48,18.48,0,0,0-5.1,4.23V.6h-4.52V53h1.67a2.39,2.39,0,0,0,.59.07,2.74,2.74,0,0,0,.44-.07h1.83V50.57h0s0,0,0-.07V23.16a21,21,0,0,1,5.68-5.68,13.15,13.15,0,0,1,7.07-2,7.8,7.8,0,0,1,6,2.33,7,7,0,0,1,2,5.17V53h4.59v-30A10.79,10.79,0,0,0,182.54,15,12.56,12.56,0,0,0,173.13,11.43Z"/><path class="cls-2" d="M209.13,11.35a14.47,14.47,0,0,0-12.39,6.41,24.44,24.44,0,0,0-4.15,14.43,24,24,0,0,0,4.15,14.28,14.47,14.47,0,0,0,12.39,6.41,16.41,16.41,0,0,0,9.62-2.84,16.87,16.87,0,0,0,6.12-7.8,3.21,3.21,0,0,0,.15-.49l.6-1.94L224,39.25a2.37,2.37,0,0,0-.32-.14,3.15,3.15,0,0,0-.49-.14l-1.83-.63-.69,1.83h0a3.47,3.47,0,0,0-.19.4,16.1,16.1,0,0,1-4,5.68,10.66,10.66,0,0,1-7.29,2.55,10.07,10.07,0,0,1-8.82-5,20,20,0,0,1-3.13-10.42h28.64V32.2a24.14,24.14,0,0,0-4.23-14.43A14.66,14.66,0,0,0,209.13,11.35ZM197.33,29.28a18.35,18.35,0,0,1,3.13-9.18,10.09,10.09,0,0,1,8.67-4.74,10.23,10.23,0,0,1,8.75,4.81A18.59,18.59,0,0,1,221,29.28Z"/><path class="cls-2" d="M303.67,48.81a3,3,0,0,1-2.48-1.09,3.3,3.3,0,0,1-.73-2.19V16.6h7.87v-2h0v-2h-7.87V.52s0,0,0,0h-4.59V12.59h-5.61v4h5.61V45.82a7,7,0,0,0,1.75,4.81,6.48,6.48,0,0,0,5.25,2.26h5.68V48.81h-4.88Z"/><path class="cls-2" d="M267.14,47.95l-.81.06h-.14a2.76,2.76,0,0,1-2-.73,2.56,2.56,0,0,1-.66-1.89V22.28q0-5.76-4.23-8.53-3.72-2.4-10.28-2.41-6.12,0-9.84,2.7a12.44,12.44,0,0,0-4.66,8.45l-.27,2,4.52.44.35-2.93a7.56,7.56,0,0,1,2.4-4.47q2.48-2.19,7.43-2.19t7.65,1.89A6.34,6.34,0,0,1,259,22.65q0,3.13-2.19,4.3t-10.06,2.33q-8.82,1.09-12.17,4.88-2.26,2.62-2.26,7.43,0,5.32,3.28,8.24t9.91,3.06a21.06,21.06,0,0,0,8.6-1.68,17.14,17.14,0,0,0,5-3.35,3.69,3.69,0,0,0,1.31,3.21q1.6,1,5.76,1l.21,0h0a7.61,7.61,0,0,0,1-.15l.89-.24v-4l-.82.16ZM259,42.25a11.62,11.62,0,0,1-4.88,4.66,18.12,18.12,0,0,1-8.6,1.89q-4.45,0-6.56-1.89a6.62,6.62,0,0,1-2-5.32A7,7,0,0,1,239.07,36q2.26-2,7.73-2.77a57.08,57.08,0,0,0,8.6-1.68A10.64,10.64,0,0,0,259,29.86Z"/><path class="cls-2" d="M276.63.52h0V52.89h4.52V.52s0,0,0,0h-4.52Z"/><path class="cls-2" d="M344.35,14.85a12.56,12.56,0,0,0-9.4-3.57,16,16,0,0,0-7.65,1.82,18.48,18.48,0,0,0-5.1,4.23V.45c0-.09,0,.08,0,0h-4.51V52.89h4.51V50.62c0-.09,0-.18,0-.28V23a21,21,0,0,1,5.68-5.68,13.15,13.15,0,0,1,7.07-2,7.8,7.8,0,0,1,6,2.33,7,7,0,0,1,2,5.17v30h4.59v-30A10.79,10.79,0,0,0,344.35,14.85Z"/><path class="cls-2" d="M351.22,6.31v.52h-1.48V10.7h-.6V6.84h-1.48V6.31Z"/><path class="cls-2" d="M351.75,6.31h.85L353.86,10l1.25-3.71H356V10.7h-.57V8.11q0-.13,0-.45t0-.67l-1.25,3.7h-.59L352.3,7v.13q0,.16,0,.49t0,.49V10.7h-.57Z"/></svg>