<?xml version="1.0" encoding="iso-8859-1"?>
<!-- Generator: Adobe Illustrator 13.0.0, SVG Export Plug-In . SVG Version: 6.00 Build 14948)  -->
<!DOCTYPE svg PUBLIC "-//W3C//DTD SVG 1.1//EN" "http://www.w3.org/Graphics/SVG/1.1/DTD/svg11.dtd">
<svg version="1.1" id="Layer_1" xmlns="http://www.w3.org/2000/svg" xmlns:xlink="http://www.w3.org/1999/xlink" x="0px" y="0px"
	 width="300px" height="90px" viewBox="0 0 300 90" style="enable-background:new 0 0 300 90;" xml:space="preserve">
<g>
	<g>
		<g>
			<g>
				<g>
					<polyline points="138.189,8.416 138.189,12.688 143.724,12.688 143.724,37.58 147.701,37.58 147.701,12.688 153.236,12.688 
						153.236,8.416 					"/>
					<rect x="276.772" y="8.416" width="4.203" height="29.165"/>
					<polyline points="281.198,22.985 292.045,8.416 297.355,8.416 285.849,22.985 297.142,37.58 291.607,37.58 					"/>
					<polyline points="262.376,37.58 247.329,37.58 247.329,8.416 262.376,8.416 262.376,12.434 251.53,12.434 251.53,21.235 
						262.376,21.235 262.376,25.01 251.53,25.01 251.53,33.556 262.376,33.556 					"/>
					<polyline points="217.223,37.58 213.01,37.58 213.01,8.416 217.223,8.416 217.223,20.742 228.954,20.742 228.954,8.416 
						232.941,8.416 232.941,37.58 228.954,37.58 228.954,25.01 217.223,25.01 					"/>
					<path d="M176.047,15.96c2.208-7.3,10.398-10.307,17.267-8.038c1.546,0.737,3.316,1.505,4.862,2.004V5.409
						c-8.627-4.029-20.358-3.281-25.68,5.53c-5.534,8.281-2.869,20.603,6.421,25.12c4.873,2.772,13.725,2.523,18.599,0l0.223-5.52
						c-4.649,3.261-11.069,4.518-15.942,1.511c-5.087-3.525-6.645-7.041-6.645-13.338l0.225-0.738"/>
					<path d="M124.688,23.997c1.546-1.506,2.208-3.764,2.208-6.023c0-2.762-0.886-5.286-2.88-7.035
						c-1.546-1.267-3.764-2.279-6.633-2.279c-0.447,0-0.671-0.244-0.895-0.244h-8.628V37.58h4.203V24.251l5.32,7.799l3.979,5.53
						h5.535l-7.967-11.07C121.136,26.51,123.131,25.499,124.688,23.997 M114.055,23.743h-1.993V12.688h3.326
						c0.438,0,1.323,0.239,1.994,0.239c1.323,0.27,2.432,0.509,3.541,1.018c1.322,1.002,1.77,2.523,1.77,4.029
						c0,1.75-0.884,3.515-1.994,4.517c-0.885,0.494-1.994,1.002-3.317,1.251C116.487,23.743,115.165,23.743,114.055,23.743z"/>
					<path d="M93.687,16.962c-0.662-1.511-1.985-3.261-3.541-4.528c-1.11-1.256-3.094-2.762-4.65-3.51
						c-1.77-0.265-3.764-0.763-5.534-0.763c0-0.239,0-0.239,0-0.239c-1.771,0-3.979,0.493-5.749,1.241
						c-1.557,0.509-3.327,1.776-4.649,3.032c-1.109,1.506-2.442,3.255-3.103,5.021c-0.886,1.496-1.109,3.764-1.109,5.515
						c0,2.029,0.223,4.034,1.109,5.794c0.438,1.75,1.333,3.261,2.217,4.538c1.546,1.75,3.541,2.997,5.312,3.77
						c1.77,0.748,3.978,1.242,5.973,1.242c1.994,0,4.212-0.494,5.982-1.242c1.771-0.773,3.765-2.02,5.087-3.77
						c1.333-1.276,2.219-2.788,2.656-4.538c0.885-1.76,1.333-3.515,1.333-5.794C95.02,20.742,94.571,18.458,93.687,16.962
						 M87.266,30.54c-1.77,2.02-4.649,3.261-7.304,3.261c-1.323,0-3.094-0.494-4.203-1.002c-1.333-0.239-2.655-1.521-3.327-2.258
						c-1.098-0.773-1.771-2.269-2.208-3.536c-0.223-1.241-0.661-2.752-0.661-4.273c0-1.242,0.438-3.007,0.885-4.273
						c0.438-1.241,1.11-2.498,2.208-3.007c0.671-1.012,1.995-2.014,3.327-2.523c1.099-0.239,2.655-0.732,3.979-0.732v0.239
						c1.333,0,2.655,0.494,3.988,0.494c1.323,0.509,2.432,1.511,3.541,2.793c0.886,0.987,1.995,1.989,2.219,3.245
						c0.438,1.028,0.884,2.523,0.884,3.765C90.593,25.763,89.484,28.525,87.266,30.54z"/>
					<path d="M52.735,12.688c-0.662-1.267-1.771-2.258-2.656-3.017c-1.109-0.244-1.994-0.748-3.102-1.012c-0.438,0-1.323,0-1.995,0
						c-0.662,0-1.546-0.244-2.208-0.244H36.13V37.58h4.425V25.763h3.103c0.438,0,0.886,0,1.323,0c2.441,0,4.649-0.753,6.207-2.269
						c1.546-1.5,2.868-3.77,2.868-6.277C54.057,15.721,53.619,13.945,52.735,12.688 M48.309,20.98
						c-0.886,0.509-1.994,0.763-3.327,1.013c-0.662,0-1.323,0-1.771,0h-2.656v-9.559h3.103c0.438,0,0.886,0.254,1.323,0.254
						c1.109,0,2.218,0.239,3.327,1.013c0.661,0.737,1.546,2.02,1.546,3.515C49.855,18.966,48.97,20.233,48.309,20.98z"/>
					<polyline style="fill:#EB1E2F;" points="117.382,60.946 79.961,63.204 44.982,65.219 43.659,65.219 44.982,66.739 
						65.127,88.589 79.961,86.065 117.382,79.051 262.601,52.39 					"/>
					<path d="M17.094,31.033c1.995-4.523-1.333-7.036-5.311-9.04c-1.771-0.25-4.649-2.269-6.42-3.536
						C0.489,14.703,0.927,7.668,6.024,4.142c3.988-2.269,8.852-1.505,12.84,0.509v4.776C16.209,6.904,9.127,4.89,7.347,9.672
						C4.478,16.214,15.1,17.974,18.64,20.98c5.535,3.525,4.874,11.817-0.661,15.343c-3.989,2.005-11.07,2.508-14.611-0.773v-0.244
						v-4.029C6.909,34.04,14.876,36.059,17.094,31.033"/>
				</g>
			</g>
		</g>
	</g>
</g>
</svg>
