<svg width="256" height="60" xmlns="http://www.w3.org/2000/svg" viewBox="0 0 256 60">

 <metadata id="metadata4298">image/svg+xml</metadata>
 <g>
  <title>background</title>
  <rect fill="none" id="canvas_background" height="62" width="258" y="-1" x="-1"/>
 </g>
 <g>
  <title>Layer 1</title>
  <g id="layer1">
   <path fill="#7a5daa" id="path145" d="m21.82276,15.959717c0.14885,0.1488 0.29769,0.1488 0.44654,0.2977c-0.14885,2.9769 1.19078,5.805 4.01887,7.4423c3.87002,2.2327 8.63313,0.8931 10.86583,-2.9769c0.89309,-1.4885 1.19078,-2.977 1.04193,-4.4654c1.33963,-0.7443 2.5304,-1.7862 3.42349,-3.1258c2.2327,-3.87 0.89308,-8.63314 -2.97695,-10.86585c-2.67924,-1.63731 -5.95388,-1.33962 -8.33543,0.2977c-0.14885,-0.14885 -0.29769,-0.14885 -0.44654,-0.2977c-3.87002,-2.2327 -8.63313,-0.89308 -10.86583,2.97694c-2.38156,3.57231 -1.04193,8.48431 2.82809,10.71701zm-0.14885,-9.2285l0,0c1.33963,-2.23274 4.16772,-3.12582 6.40043,-1.7862c3.72117,2.2327 4.7631,-2.38155 8.78197,0c2.23271,1.33962 2.97694,4.1677 1.78616,6.5493c-0.89308,1.6373 -2.67924,2.0838 -3.27463,3.2746c-0.59539,1.1908 -0.14885,2.8281 -1.19078,4.4654c-1.33962,2.2327 -4.16771,2.977 -6.40042,1.7862c-4.16772,-2.3816 -0.59539,-5.2097 -4.46541,-7.7401c-2.23271,-1.4884 -2.97694,-4.3165 -1.63732,-6.5492zm32.74635,38.2537l0,0c-0.44654,-4.3166 -4.31656,-7.5912 -8.78198,-7.1447c-0.14884,0 -0.29769,0 -0.44654,0.1488c-1.48847,-2.5304 -4.46541,-4.0188 -7.5912,-3.7211c-4.31656,0.4465 -7.59119,4.3165 -6.99581,8.7819c0.14885,1.6374 0.89309,3.1258 1.78617,4.3166c-0.74424,1.3396 -1.04193,2.9769 -0.89308,4.6143c0.44654,4.3165 4.31656,7.4423 8.78197,6.9958c3.12579,-0.2977 5.65619,-2.3816 6.69812,-5.2097c0.14884,0 0.29769,0 0.59539,0c4.01887,-0.5954 7.2935,-4.4654 6.84696,-8.7819zm-7.44235,5.5073l0,0c-4.31657,0.4465 -2.38155,4.7631 -7.14466,5.2096c-2.5304,0.2977 -4.91195,-1.6373 -5.20965,-4.1677c-0.14884,-1.7861 0.89309,-3.2746 0.74424,-4.6142c-0.14885,-1.3397 -1.48847,-2.3816 -1.63732,-4.3166c-0.29769,-2.5304 1.63732,-4.912 4.16772,-5.2096c4.7631,-0.4466 3.57233,3.87 8.03774,3.5723c2.67925,-0.1489 4.91195,1.6373 5.20965,4.1677c0.29769,2.8281 -1.63732,5.0608 -4.16772,5.3585zm-17.7128,-11.4612l0,0c-1.78616,-4.0189 -6.54927,-5.8051 -10.41929,-4.0189c-1.48847,0.7442 -2.67925,1.7862 -3.57233,3.1258c-1.48847,-0.2977 -3.12579,-0.1489 -4.61426,0.5954c-4.01887,1.7861 -5.80503,6.5492 -4.01887,10.4193c1.33962,2.8281 4.01887,4.6142 6.99581,4.7631c0,0.1488 0.14885,0.2977 0.14885,0.4465c1.78616,4.0189 6.54927,5.805 10.41929,4.0189c4.01887,-1.7862 5.80504,-6.4004 4.01887,-10.4193c0,-0.1489 -0.14885,-0.2977 -0.29769,-0.4465c2.08386,-2.3816 2.67924,-5.6562 1.33962,-8.4843zm-3.87002,10.1216l0,0c0.89308,2.3815 0,5.2096 -2.38155,6.2515c-2.38156,1.042 -5.20965,0 -6.25158,-2.3815c-1.78617,-4.0189 -5.20965,-0.8931 -7.14466,-5.2097c-1.04193,-2.3815 0,-5.2096 2.38155,-6.2515c1.63732,-0.7443 3.42349,-0.1489 4.61426,-0.7443c1.19078,-0.4465 1.78617,-2.2327 3.57233,-2.9769c2.38155,-1.0419 5.20965,0 6.25158,2.3815c1.93501,4.4655 -2.67925,4.6143 -1.04193,8.9309zm-11.61007,-15.0336l0,0c0.14884,-0.1488 0.29769,-0.2977 0.29769,-0.2977c2.67925,1.1908 5.95388,0.5954 8.33544,-1.4884c3.27463,-2.977 3.57233,-7.8889 0.59539,-11.1636c-1.04193,-1.1907 -2.5304,-2.0838 -4.01887,-2.3815c-0.14885,-1.4885 -0.89309,-2.977 -1.93502,-4.1677c-2.97694,-3.2747 -7.88889,-3.5724 -11.16352,-0.5954c-2.38156,2.0838 -3.12579,5.2096 -2.38156,8.0377c-0.14884,0.1489 -0.29769,0.2977 -0.44654,0.2977c-3.27463,2.9769 -3.57233,7.8889 -0.59539,11.1635c2.97694,3.2747 8.03774,3.5724 11.31238,0.5954zm-8.48428,-9.3773l0,0c3.27463,-2.977 -0.89309,-5.2097 2.67924,-8.4843c1.93502,-1.7862 4.91196,-1.6373 6.69812,0.2977c1.19078,1.3396 1.19078,3.1258 2.08386,4.1677c0.89308,0.8931 2.67925,1.0419 3.87002,2.5304c1.78617,1.935 1.63732,4.9119 -0.29769,6.6981c-3.57233,3.1258 -5.20965,-1.0419 -8.63313,1.7862c-2.08386,1.6373 -4.91195,1.6373 -6.69812,-0.2977c-1.78616,-1.935 -1.63731,-4.912 0.2977,-6.6981z" class="st4"/>
   <path fill="#7a5daa" id="path147" d="m56.80181,21.812417c0,-0.1488 0.14885,-0.2977 0.14885,-0.4465c0.89308,-4.3166 -1.78616,-8.4843 -6.10273,-9.3774c-4.31656,-0.8931 -8.48428,1.7862 -9.37736,6.1027c0,0.1489 0,0.2977 -0.14885,0.4466c-2.82809,0.7442 -5.20965,2.9769 -5.80503,6.1027c-0.89309,4.3166 1.78616,8.4843 6.10272,9.3774c1.63732,0.2977 3.27464,0.1488 4.61426,-0.4466c1.04193,1.042 2.38156,1.935 4.01887,2.2327c4.31657,0.8931 8.48428,-1.7861 9.37737,-6.1027c0.74423,-3.1258 -0.59539,-6.1027 -2.8281,-7.8889zm-0.29769,7.1447l0,0c-0.59539,2.5304 -3.12579,4.1677 -5.65619,3.7211c-1.78616,-0.4465 -2.82809,-1.935 -4.01887,-2.0838c-1.19078,-0.2977 -2.82809,0.7442 -4.61426,0.2977c-2.5304,-0.5954 -4.16771,-3.1258 -3.72117,-5.6562c1.04193,-4.7631 4.7631,-2.2327 5.95388,-6.5493c0.59539,-2.5304 3.12579,-4.1677 5.65619,-3.5723c2.5304,0.5954 4.16771,3.1258 3.72117,5.6562c-1.04193,4.0188 3.72118,3.5723 2.67925,8.1866z" class="st4"/>
  </g>
  <text font-weight="bold" xml:space="preserve" text-anchor="start" font-family="Helvetica, Arial, sans-serif" font-size="24" id="svg_1" y="27.84375" x="70.5" stroke-width="0" stroke="#000" fill="#000000">Web Sun Group</text>
  <text xml:space="preserve" text-anchor="start" font-family="Helvetica, Arial, sans-serif" font-size="21" id="svg_2" y="49.84375" x="70.09375" stroke-opacity="null" stroke-width="0" stroke="#000" fill="#919191">Browse your future</text>
 </g>
</svg>